<svg width="50" height="50" viewBox="0 0 50 50" fill="none" xmlns="http://www.w3.org/2000/svg">
<circle cx="25" cy="25" r="24.5" fill="white" stroke="#EAEDF4"/>
<path d="M34.2808 31.424C33.933 32.2275 33.5213 32.9672 33.0442 33.6472C32.394 34.5743 31.8616 35.216 31.4513 35.5724C30.8153 36.1573 30.1338 36.4568 29.4041 36.4739C28.8802 36.4739 28.2485 36.3248 27.513 36.0224C26.7752 35.7214 26.0972 35.5724 25.4772 35.5724C24.827 35.5724 24.1296 35.7214 23.3837 36.0224C22.6366 36.3248 22.0348 36.4824 21.5747 36.498C20.8749 36.5278 20.1774 36.2197 19.4812 35.5724C19.0368 35.1848 18.481 34.5204 17.8151 33.5791C17.1007 32.5739 16.5134 31.4084 16.0533 30.0795C15.5605 28.6442 15.3135 27.2543 15.3135 25.9087C15.3135 24.3673 15.6465 23.0379 16.3137 21.9238C16.838 21.029 17.5355 20.3231 18.4084 19.8049C19.2814 19.2867 20.2247 19.0227 21.2405 19.0058C21.7963 19.0058 22.5252 19.1777 23.431 19.5156C24.3342 19.8546 24.9141 20.0265 25.1684 20.0265C25.3585 20.0265 26.0028 19.8255 27.0949 19.4247C28.1278 19.0531 28.9995 18.8992 29.7136 18.9598C31.6487 19.1159 33.1024 19.8788 34.0693 21.253C32.3386 22.3016 31.4826 23.7703 31.4996 25.6544C31.5152 27.122 32.0476 28.3432 33.0939 29.3129C33.5681 29.7629 34.0977 30.1107 34.6868 30.3578C34.5591 30.7283 34.4242 31.0832 34.2808 31.424V31.424ZM29.8428 13.9601C29.8428 15.1104 29.4226 16.1844 28.5849 17.1785C27.5741 18.3602 26.3514 19.0431 25.0256 18.9354C25.0087 18.7974 24.9989 18.6521 24.9989 18.4995C24.9989 17.3953 25.4796 16.2135 26.3333 15.2472C26.7595 14.758 27.3015 14.3512 27.9588 14.0267C28.6147 13.7071 29.2352 13.5303 29.8187 13.5C29.8357 13.6538 29.8428 13.8076 29.8428 13.9601V13.9601Z" fill="black"/>
</svg>
