<svg width="50" height="50" viewBox="0 0 50 50" fill="none" xmlns="http://www.w3.org/2000/svg">
<circle cx="25" cy="25" r="24.5" fill="white" stroke="#EAEDF4"/>
<g clip-path="url(#clip0_489_4620)">
<rect width="24" height="24" transform="translate(13 13)" fill="white"/>
<path fill-rule="evenodd" clip-rule="evenodd" d="M37 25.2725C37 24.4213 36.9215 23.6039 36.7773 22.8182H25.2451V27.46H31.8355C31.5517 28.9601 30.6888 30.2308 29.3922 31.082V34.0925H33.3501C35.6653 32.0034 37.0011 28.9273 37.0011 25.2725H37Z" fill="#3E82F1"/>
<path fill-rule="evenodd" clip-rule="evenodd" d="M25.245 37C28.5511 37 31.3232 35.9249 33.3488 34.0924L29.3909 31.0819C28.2939 31.8021 26.8923 32.2271 25.2438 32.2271C22.0542 32.2271 19.3549 30.1165 18.3916 27.2802H14.3022V30.389C16.3175 34.3106 20.4577 37 25.245 37Z" fill="#32A753"/>
<path fill-rule="evenodd" clip-rule="evenodd" d="M18.3929 27.2801C18.1484 26.56 18.0088 25.7913 18.0088 24.9999C18.0088 24.2086 18.1484 23.4399 18.3929 22.7198V19.611H14.3024C13.473 21.2309 13 23.0634 13 24.9999C13 26.9364 13.473 28.7689 14.3024 30.3889L18.3929 27.2801Z" fill="#F9BB00"/>
<path fill-rule="evenodd" clip-rule="evenodd" d="M25.245 17.7729C27.0423 17.7729 28.6573 18.3788 29.9262 19.5669L33.4388 16.1246C31.3174 14.1893 28.5454 13 25.245 13C20.4577 13 16.3175 15.6894 14.3022 19.611L18.3928 22.7198C19.356 19.8835 22.0554 17.7729 25.245 17.7729Z" fill="#E74133"/>
</g>
<defs>
<clipPath id="clip0_489_4620">
<rect width="24" height="24" fill="white" transform="translate(13 13)"/>
</clipPath>
</defs>
</svg>
