<svg width="16" height="16" viewBox="0 0 16 16" fill="none" xmlns="http://www.w3.org/2000/svg">
<path fill-rule="evenodd" clip-rule="evenodd" d="M13.6411 9.1764L13.6438 9.17305C14.6168 8.00381 14.9993 6.98279 14.9969 5.92126L14.9969 5.91895C14.9969 4.82558 14.6235 3.86458 13.9925 3.17761C13.3551 2.48776 12.488 2.10645 11.5281 2.10645C10.8282 2.10645 10.1972 2.32127 9.62743 2.76378C9.31851 3.00563 9.04341 3.29504 8.80889 3.62133L7.98925 4.76169L7.17973 3.61413C6.95481 3.29528 6.68058 3.00995 6.36737 2.7646C5.79445 2.32238 5.16534 2.10645 4.46875 2.10645C3.51263 2.10645 2.64454 2.48735 2.00297 3.17911C1.37141 3.86416 1 4.82678 1 5.91895C1 6.98238 1.38356 8.00463 2.35396 9.17415L2.35444 9.17472C2.64188 9.52169 3.51773 10.3147 4.60842 11.2471C5.66563 12.151 6.83797 13.1138 7.64304 13.7678L7.64436 13.7689C7.8515 13.9377 8.14538 13.9377 8.35251 13.7689L8.35384 13.7678C9.15913 13.1136 10.3322 12.1508 11.3898 11.247C12.4814 10.3141 13.356 9.52205 13.6411 9.1764ZM1.26875 2.5002C0.45 3.3877 0 4.6002 0 5.91895C0 7.26895 0.503125 8.50957 1.58438 9.8127C2.29375 10.6689 5.39687 13.2314 7.0125 14.5439C7.5875 15.0127 8.40938 15.0127 8.98438 14.5439C10.6 13.2314 13.7063 10.6689 14.4125 9.8127C15.4969 8.50957 16 7.26895 15.9969 5.91895C15.9969 4.59707 15.5438 3.3877 14.7281 2.5002C13.9 1.60332 12.7656 1.10645 11.5281 1.10645C10.6031 1.10645 9.75625 1.39707 9.0125 1.9752C8.89438 2.0676 8.78061 2.16522 8.67138 2.26764C8.42227 2.50119 8.19674 2.75963 7.99688 3.0377C7.79942 2.75779 7.57334 2.50048 7.32386 2.26786C7.21404 2.16546 7.09969 2.06785 6.98125 1.9752C6.2375 1.4002 5.39375 1.10645 4.46875 1.10645C3.23438 1.10645 2.1 1.60332 1.26875 2.5002Z" fill="#818A9C"/>
</svg>
