<svg width="350" height="165" viewBox="0 0 350 165" fill="none" xmlns="http://www.w3.org/2000/svg">
<path d="M0.21875 87.1016H1.46289L3.5 95.127H3.5957L5.6875 87.1016H7.05469L9.14648 95.127H9.24219L11.2793 87.1016H12.5371L9.84375 97H8.57227L6.41211 89.1523H6.33008L4.18359 97H2.89844L0.21875 87.1016ZM0.287109 91.5039H12.4688V92.5977H0.287109V91.5039ZM20.6498 97.1367C19.9206 97.1367 19.2985 96.9385 18.7836 96.542C18.2686 96.1455 17.8744 95.5667 17.601 94.8057C17.3275 94.0446 17.1908 93.1263 17.1908 92.0508C17.1908 90.9844 17.3275 90.0706 17.601 89.3096C17.8744 88.5485 18.2709 87.9674 18.7904 87.5664C19.3099 87.1654 19.9297 86.9648 20.6498 86.9648C21.3698 86.9648 21.9896 87.1654 22.5092 87.5664C23.0287 87.9674 23.4252 88.5485 23.6986 89.3096C23.972 90.0706 24.1088 90.9844 24.1088 92.0508C24.1088 93.1263 23.9743 94.0446 23.7054 94.8057C23.4366 95.5667 23.0424 96.1455 22.5228 96.542C22.0033 96.9385 21.3789 97.1367 20.6498 97.1367ZM20.6498 96.043C21.1237 96.043 21.5293 95.888 21.8666 95.5781C22.2038 95.2682 22.4613 94.8148 22.639 94.2178C22.8168 93.6208 22.9056 92.8984 22.9056 92.0508C22.9056 91.2031 22.8168 90.4785 22.639 89.877C22.4613 89.2754 22.2038 88.8174 21.8666 88.5029C21.5293 88.1885 21.1237 88.0312 20.6498 88.0312C20.1758 88.0312 19.7702 88.1885 19.433 88.5029C19.0957 88.8174 18.836 89.2754 18.6537 89.877C18.4714 90.4785 18.3803 91.2031 18.3803 92.0508C18.3803 92.8984 18.4691 93.6208 18.6469 94.2178C18.8246 94.8148 19.0844 95.2682 19.4261 95.5781C19.7679 95.888 20.1758 96.043 20.6498 96.043ZM29.3614 97H28.1173V88.3867H28.0626L25.6563 89.9863V88.7422L28.1173 87.1016H29.3614V97ZM32.0984 96.0977L35.4753 92.543C35.922 92.069 36.2638 91.6885 36.5007 91.4014C36.7377 91.1143 36.9154 90.834 37.0339 90.5605C37.1524 90.2871 37.2117 90.0046 37.2117 89.7129C37.2117 89.3848 37.1251 89.0931 36.9519 88.8379C36.7787 88.5827 36.544 88.3844 36.2478 88.2432C35.9516 88.1019 35.6166 88.0312 35.2429 88.0312C34.8601 88.0312 34.5229 88.1087 34.2312 88.2637C33.9395 88.4186 33.714 88.6374 33.5544 88.9199C33.3949 89.2025 33.3152 89.526 33.3152 89.8906H32.1531C32.1531 89.3164 32.2875 88.8083 32.5564 88.3662C32.8253 87.9242 33.199 87.5801 33.6775 87.334C34.156 87.0879 34.6915 86.9648 35.2839 86.9648C35.8764 86.9648 36.405 87.0856 36.8699 87.3271C37.3347 87.5687 37.6993 87.8991 37.9636 88.3184C38.2279 88.7376 38.3601 89.2025 38.3601 89.7129C38.3601 90.0866 38.2917 90.4466 38.155 90.793C38.0183 91.1393 37.7904 91.5199 37.4714 91.9346C37.1524 92.3493 36.6921 92.8665 36.0906 93.4863L33.821 95.8242V95.9062H38.5378V97H32.1121L32.0984 96.0977ZM43.8588 97.1367C43.2117 97.1367 42.6306 97.0273 42.1157 96.8086C41.6007 96.5898 41.1951 96.2822 40.8989 95.8857C40.6026 95.4893 40.4409 95.0312 40.4135 94.5117H41.6577C41.685 94.8125 41.7967 95.0791 41.9926 95.3115C42.1886 95.5439 42.4483 95.724 42.7719 95.8516C43.0955 95.9792 43.4532 96.043 43.8452 96.043C44.2735 96.043 44.6609 95.9678 45.0073 95.8174C45.3536 95.667 45.6225 95.4619 45.8139 95.2021C46.0053 94.9424 46.101 94.6439 46.101 94.3066C46.101 93.9421 46.0076 93.6208 45.8207 93.3428C45.6339 93.0648 45.3605 92.8483 45.0004 92.6934C44.6404 92.5384 44.2052 92.4609 43.6948 92.4609H42.8881V91.3809H43.6948C44.0958 91.3809 44.4513 91.3102 44.7612 91.1689C45.0711 91.0277 45.3103 90.8294 45.4789 90.5742C45.6476 90.319 45.7319 90.0228 45.7319 89.6855C45.7319 89.3574 45.6567 89.068 45.5063 88.8174C45.3559 88.5667 45.1417 88.373 44.8637 88.2363C44.5857 88.0996 44.2599 88.0312 43.8862 88.0312C43.5307 88.0312 43.198 88.0951 42.8881 88.2227C42.5782 88.3503 42.3253 88.5303 42.1293 88.7627C41.9334 88.9951 41.8263 89.2708 41.808 89.5898H40.6186C40.6459 89.0794 40.8077 88.6237 41.1039 88.2227C41.4002 87.8216 41.7944 87.5117 42.2866 87.293C42.7788 87.0742 43.3165 86.9648 43.8998 86.9648C44.5105 86.9648 45.046 87.0833 45.5063 87.3203C45.9666 87.5573 46.3198 87.8786 46.5659 88.2842C46.812 88.6898 46.9304 89.1341 46.9213 89.6172C46.9304 89.9818 46.8666 90.3167 46.7299 90.6221C46.5932 90.9274 46.3972 91.1849 46.142 91.3945C45.8868 91.6042 45.586 91.7591 45.2397 91.8594V91.9277C45.6681 91.9915 46.0372 92.1328 46.3471 92.3516C46.657 92.5703 46.8963 92.846 47.0649 93.1787C47.2335 93.5114 47.3133 93.8874 47.3041 94.3066C47.3133 94.8353 47.1674 95.3161 46.8666 95.749C46.5659 96.182 46.1511 96.5215 45.6225 96.7676C45.0939 97.0137 44.506 97.1367 43.8588 97.1367ZM48.9474 93.9648L53.4044 87.1016H54.1427V88.6602H53.6232L50.2736 93.8145V93.8965H56.3029V94.9766H48.9474V93.9648ZM53.7462 94.6758V94.1973V87.1016H54.922V97H53.7462V94.6758ZM61.2684 97.1367C60.685 97.1367 60.1518 97.0228 59.6688 96.7949C59.1857 96.5671 58.8029 96.2549 58.5203 95.8584C58.2378 95.4619 58.0828 95.013 58.0555 94.5117H59.2449C59.2814 94.8034 59.393 95.0654 59.5799 95.2979C59.7667 95.5303 60.0083 95.7148 60.3045 95.8516C60.6007 95.9883 60.922 96.0566 61.2684 96.0566C61.6876 96.0566 62.0659 95.9609 62.4031 95.7695C62.7404 95.5781 63.0047 95.3161 63.1961 94.9834C63.3875 94.6507 63.4832 94.2793 63.4832 93.8691C63.4832 93.4408 63.3852 93.0579 63.1893 92.7207C62.9933 92.3835 62.7199 92.1169 62.369 91.9209C62.018 91.7249 61.6238 91.627 61.1863 91.627C60.758 91.6178 60.3888 91.6839 60.0789 91.8252C59.769 91.9665 59.5229 92.1966 59.3406 92.5156H58.1512L58.8485 87.1016H64.2078V88.1953H59.8738L59.5047 91.0938H59.6004C59.8283 90.9206 60.1017 90.7816 60.4207 90.6768C60.7397 90.5719 61.0679 90.5195 61.4051 90.5195C62.0249 90.5195 62.5854 90.6608 63.0867 90.9434C63.588 91.2259 63.98 91.6201 64.2625 92.126C64.5451 92.6318 64.6863 93.2038 64.6863 93.8418C64.6863 94.4707 64.5382 95.0358 64.242 95.5371C63.9458 96.0384 63.5379 96.4303 63.0184 96.7129C62.4988 96.9954 61.9155 97.1367 61.2684 97.1367ZM69.9526 97.1367C69.3146 97.1276 68.7267 96.9772 68.189 96.6855C67.6512 96.3939 67.2092 95.8994 66.8628 95.2021C66.5164 94.5049 66.3433 93.582 66.3433 92.4336C66.3433 91.276 66.4959 90.2871 66.8013 89.4668C67.1066 88.6465 67.5396 88.0244 68.1001 87.6006C68.6607 87.1768 69.3283 86.9648 70.103 86.9648C70.6773 86.9648 71.1899 87.0742 71.6411 87.293C72.0923 87.5117 72.4637 87.8193 72.7554 88.2158C73.047 88.6123 73.2339 89.0703 73.3159 89.5898H72.0991C72.0171 89.2891 71.8895 89.0225 71.7163 88.79C71.5431 88.5576 71.3198 88.3776 71.0464 88.25C70.773 88.1224 70.4585 88.0586 70.103 88.0586C69.5653 88.0586 69.1027 88.2067 68.7153 88.5029C68.328 88.7992 68.0295 89.2298 67.8198 89.7949C67.6102 90.36 67.5054 91.0391 67.5054 91.832H67.6284C67.8198 91.5586 68.0454 91.3239 68.3052 91.1279C68.5649 90.932 68.8543 90.7816 69.1733 90.6768C69.4924 90.5719 69.825 90.5195 70.1714 90.5195C70.7547 90.5195 71.2948 90.6608 71.7915 90.9434C72.2883 91.2259 72.6802 91.6156 72.9673 92.1123C73.2544 92.609 73.398 93.1719 73.398 93.8008C73.398 94.4206 73.2544 94.9857 72.9673 95.4961C72.6802 96.0065 72.2746 96.4076 71.7505 96.6992C71.2264 96.9909 70.6271 97.1367 69.9526 97.1367ZM69.9526 96.0566C70.3719 96.0566 70.7524 95.9564 71.0942 95.7559C71.436 95.5553 71.7072 95.2819 71.9077 94.9355C72.1082 94.5892 72.2085 94.2155 72.2085 93.8145C72.2085 93.4043 72.1128 93.0306 71.9214 92.6934C71.73 92.3561 71.4657 92.0895 71.1284 91.8936C70.7912 91.6976 70.4084 91.5996 69.98 91.5996C69.5607 91.5996 69.1756 91.7021 68.8247 91.9072C68.4738 92.1123 68.1958 92.3857 67.9907 92.7275C67.7857 93.0693 67.6786 93.4362 67.6694 93.8281C67.6694 94.2109 67.7697 94.5732 67.9702 94.915C68.1707 95.2568 68.4442 95.5326 68.7905 95.7422C69.1369 95.9518 69.5243 96.0566 69.9526 96.0566ZM80.0588 88.2637V88.1953H74.8225V87.1016H81.3303V88.25L76.8049 97H75.5197L80.0588 88.2637ZM86.1591 97.1367C85.4755 97.1367 84.8671 97.0182 84.3339 96.7812C83.8007 96.5443 83.386 96.2161 83.0897 95.7969C82.7935 95.3776 82.6454 94.9036 82.6454 94.375C82.6454 93.9557 82.732 93.5638 82.9052 93.1992C83.0783 92.8346 83.3199 92.5339 83.6298 92.2969C83.9397 92.0599 84.2815 91.9141 84.6552 91.8594V91.8047C84.3361 91.7227 84.0536 91.5768 83.8075 91.3672C83.5614 91.1576 83.37 90.8978 83.2333 90.5879C83.0966 90.278 83.0282 89.9453 83.0282 89.5898C83.0282 89.0885 83.1649 88.6374 83.4384 88.2363C83.7118 87.8353 84.0855 87.5231 84.5595 87.2998C85.0334 87.0765 85.5666 86.9648 86.1591 86.9648C86.7515 86.9648 87.287 87.0765 87.7655 87.2998C88.244 87.5231 88.62 87.8353 88.8934 88.2363C89.1669 88.6374 89.3036 89.0885 89.3036 89.5898C89.3036 89.9453 89.233 90.278 89.0917 90.5879C88.9504 90.8978 88.7567 91.1576 88.5106 91.3672C88.2645 91.5768 87.982 91.7227 87.663 91.8047V91.8594C88.0367 91.9141 88.3762 92.0599 88.6815 92.2969C88.9869 92.5339 89.2307 92.8346 89.413 93.1992C89.5953 93.5638 89.6864 93.9557 89.6864 94.375C89.6864 94.9036 89.536 95.3776 89.2352 95.7969C88.9345 96.2161 88.5175 96.5443 87.9843 96.7812C87.4511 97.0182 86.8427 97.1367 86.1591 97.1367ZM86.1591 96.0566C86.6239 96.0566 87.0295 95.9837 87.3759 95.8379C87.7222 95.6921 87.9888 95.487 88.1757 95.2227C88.3625 94.9583 88.4559 94.653 88.4559 94.3066C88.4559 93.9421 88.358 93.6162 88.162 93.3291C87.966 93.042 87.6926 92.8164 87.3417 92.6523C86.9908 92.4883 86.5966 92.4062 86.1591 92.4062C85.7216 92.4062 85.3274 92.4883 84.9764 92.6523C84.6255 92.8164 84.3521 93.042 84.1561 93.3291C83.9602 93.6162 83.8667 93.9421 83.8759 94.3066C83.8667 94.653 83.9556 94.9583 84.1425 95.2227C84.3293 95.487 84.5959 95.6921 84.9423 95.8379C85.2886 95.9837 85.6942 96.0566 86.1591 96.0566ZM86.1591 91.3672C86.5328 91.3672 86.8677 91.2965 87.1639 91.1553C87.4602 91.014 87.6903 90.8158 87.8544 90.5605C88.0184 90.3053 88.1005 90.0137 88.1005 89.6855C88.1005 89.3574 88.0207 89.068 87.8612 88.8174C87.7017 88.5667 87.4738 88.373 87.1776 88.2363C86.8814 88.0996 86.5419 88.0312 86.1591 88.0312C85.7763 88.0312 85.4367 88.0996 85.1405 88.2363C84.8443 88.373 84.6164 88.5667 84.4569 88.8174C84.2974 89.068 84.2177 89.3574 84.2177 89.6855C84.2177 90.0137 84.302 90.3053 84.4706 90.5605C84.6392 90.8158 84.8694 91.014 85.161 91.1553C85.4527 91.2965 85.7854 91.3672 86.1591 91.3672ZM94.7476 86.9648C95.3856 86.9648 95.9735 87.1107 96.5113 87.4023C97.0491 87.694 97.4888 88.1885 97.8306 88.8857C98.1724 89.583 98.3433 90.5059 98.3433 91.6543C98.3433 92.8118 98.1929 93.8008 97.8922 94.6211C97.5914 95.4414 97.1584 96.0658 96.5933 96.4941C96.0282 96.9225 95.3583 97.1367 94.5836 97.1367C94.0185 97.1367 93.508 97.0251 93.0523 96.8018C92.5966 96.5785 92.2229 96.2686 91.9312 95.8721C91.6396 95.4756 91.4527 95.0176 91.3707 94.498H92.5875C92.6604 94.7988 92.7857 95.0654 92.9634 95.2979C93.1412 95.5303 93.3668 95.7126 93.6402 95.8447C93.9136 95.9769 94.2281 96.043 94.5836 96.043C95.1213 96.043 95.5862 95.8926 95.9781 95.5918C96.37 95.291 96.6708 94.8558 96.8804 94.2861C97.0901 93.7165 97.1949 93.0352 97.1949 92.2422H97.0582C96.8668 92.5156 96.6412 92.7503 96.3814 92.9463C96.1217 93.1423 95.8345 93.2926 95.5201 93.3975C95.2056 93.5023 94.8752 93.5547 94.5289 93.5547C93.9455 93.5547 93.4055 93.4134 92.9088 93.1309C92.412 92.8483 92.0178 92.4587 91.7261 91.9619C91.4345 91.4652 91.2886 90.9069 91.2886 90.2871C91.2886 89.6673 91.4322 89.1045 91.7193 88.5986C92.0064 88.0928 92.412 87.6917 92.9361 87.3955C93.4602 87.0993 94.064 86.9557 94.7476 86.9648ZM94.7476 88.0449C94.3284 88.0449 93.9455 88.1452 93.5992 88.3457C93.2528 88.5462 92.9817 88.8174 92.7857 89.1592C92.5897 89.501 92.4918 89.8724 92.4918 90.2734C92.4918 90.6745 92.5875 91.0436 92.7789 91.3809C92.9703 91.7181 93.2346 91.9847 93.5718 92.1807C93.9091 92.3766 94.2873 92.4746 94.7066 92.4746C95.1259 92.4746 95.511 92.3698 95.8619 92.1602C96.2128 91.9505 96.4908 91.6748 96.6959 91.333C96.9009 90.9912 97.0035 90.6289 97.0035 90.2461C97.0035 89.8633 96.9055 89.5033 96.7095 89.166C96.5136 88.8288 96.2447 88.5576 95.9029 88.3525C95.5611 88.1475 95.176 88.0449 94.7476 88.0449ZM103.651 97H102.407V88.3867H102.352L99.9456 89.9863V88.7422L102.407 87.1016H103.651V97ZM109.642 97.1367C108.912 97.1367 108.29 96.9385 107.775 96.542C107.26 96.1455 106.866 95.5667 106.593 94.8057C106.319 94.0446 106.183 93.1263 106.183 92.0508C106.183 90.9844 106.319 90.0706 106.593 89.3096C106.866 88.5485 107.263 87.9674 107.782 87.5664C108.302 87.1654 108.921 86.9648 109.642 86.9648C110.362 86.9648 110.981 87.1654 111.501 87.5664C112.02 87.9674 112.417 88.5485 112.69 89.3096C112.964 90.0706 113.101 90.9844 113.101 92.0508C113.101 93.1263 112.966 94.0446 112.697 94.8057C112.428 95.5667 112.034 96.1455 111.515 96.542C110.995 96.9385 110.371 97.1367 109.642 97.1367ZM109.642 96.043C110.116 96.043 110.521 95.888 110.858 95.5781C111.196 95.2682 111.453 94.8148 111.631 94.2178C111.809 93.6208 111.897 92.8984 111.897 92.0508C111.897 91.2031 111.809 90.4785 111.631 89.877C111.453 89.2754 111.196 88.8174 110.858 88.5029C110.521 88.1885 110.116 88.0312 109.642 88.0312C109.168 88.0312 108.762 88.1885 108.425 88.5029C108.088 88.8174 107.828 89.2754 107.645 89.877C107.463 90.4785 107.372 91.2031 107.372 92.0508C107.372 92.8984 107.461 93.6208 107.639 94.2178C107.816 94.8148 108.076 95.2682 108.418 95.5781C108.76 95.888 109.168 96.043 109.642 96.043ZM118.353 97H117.109V88.3867H117.054L114.648 89.9863V88.7422L117.109 87.1016H118.353V97ZM124.604 97H123.36V88.3867H123.305L120.899 89.9863V88.7422L123.36 87.1016H124.604V97ZM130.854 97H129.61V88.3867H129.556L127.149 89.9863V88.7422L129.61 87.1016H130.854V97ZM133.592 96.0977L136.968 92.543C137.415 92.069 137.757 91.6885 137.994 91.4014C138.231 91.1143 138.409 90.834 138.527 90.5605C138.646 90.2871 138.705 90.0046 138.705 89.7129C138.705 89.3848 138.618 89.0931 138.445 88.8379C138.272 88.5827 138.037 88.3844 137.741 88.2432C137.445 88.1019 137.11 88.0312 136.736 88.0312C136.353 88.0312 136.016 88.1087 135.724 88.2637C135.433 88.4186 135.207 88.6374 135.048 88.9199C134.888 89.2025 134.808 89.526 134.808 89.8906H133.646C133.646 89.3164 133.781 88.8083 134.05 88.3662C134.318 87.9242 134.692 87.5801 135.171 87.334C135.649 87.0879 136.185 86.9648 136.777 86.9648C137.37 86.9648 137.898 87.0856 138.363 87.3271C138.828 87.5687 139.192 87.8991 139.457 88.3184C139.721 88.7376 139.853 89.2025 139.853 89.7129C139.853 90.0866 139.785 90.4466 139.648 90.793C139.511 91.1393 139.284 91.5199 138.965 91.9346C138.646 92.3493 138.185 92.8665 137.584 93.4863L135.314 95.8242V95.9062H140.031V97H133.605L133.592 96.0977ZM145.434 97H144.19V88.3867H144.135L141.729 89.9863V88.7422L144.19 87.1016H145.434V97ZM151.603 97.1367C150.955 97.1367 150.374 97.0273 149.859 96.8086C149.344 96.5898 148.939 96.2822 148.643 95.8857C148.346 95.4893 148.185 95.0312 148.157 94.5117H149.401C149.429 94.8125 149.54 95.0791 149.736 95.3115C149.932 95.5439 150.192 95.724 150.516 95.8516C150.839 95.9792 151.197 96.043 151.589 96.043C152.017 96.043 152.405 95.9678 152.751 95.8174C153.097 95.667 153.366 95.4619 153.558 95.2021C153.749 94.9424 153.845 94.6439 153.845 94.3066C153.845 93.9421 153.751 93.6208 153.565 93.3428C153.378 93.0648 153.104 92.8483 152.744 92.6934C152.384 92.5384 151.949 92.4609 151.439 92.4609H150.632V91.3809H151.439C151.84 91.3809 152.195 91.3102 152.505 91.1689C152.815 91.0277 153.054 90.8294 153.223 90.5742C153.391 90.319 153.476 90.0228 153.476 89.6855C153.476 89.3574 153.4 89.068 153.25 88.8174C153.1 88.5667 152.885 88.373 152.607 88.2363C152.33 88.0996 152.004 88.0312 151.63 88.0312C151.274 88.0312 150.942 88.0951 150.632 88.2227C150.322 88.3503 150.069 88.5303 149.873 88.7627C149.677 88.9951 149.57 89.2708 149.552 89.5898H148.362C148.39 89.0794 148.552 88.6237 148.848 88.2227C149.144 87.8216 149.538 87.5117 150.03 87.293C150.523 87.0742 151.06 86.9648 151.644 86.9648C152.254 86.9648 152.79 87.0833 153.25 87.3203C153.71 87.5573 154.064 87.8786 154.31 88.2842C154.556 88.6898 154.674 89.1341 154.665 89.6172C154.674 89.9818 154.61 90.3167 154.474 90.6221C154.337 90.9274 154.141 91.1849 153.886 91.3945C153.631 91.6042 153.33 91.7591 152.983 91.8594V91.9277C153.412 91.9915 153.781 92.1328 154.091 92.3516C154.401 92.5703 154.64 92.846 154.809 93.1787C154.977 93.5114 155.057 93.8874 155.048 94.3066C155.057 94.8353 154.911 95.3161 154.61 95.749C154.31 96.182 153.895 96.5215 153.366 96.7676C152.838 97.0137 152.25 97.1367 151.603 97.1367ZM160.437 97H159.193V88.3867H159.138L156.732 89.9863V88.7422L159.193 87.1016H160.437V97ZM162.942 93.9648L167.399 87.1016H168.137V88.6602H167.618L164.268 93.8145V93.8965H170.297V94.9766H162.942V93.9648ZM167.741 94.6758V94.1973V87.1016H168.916V97H167.741V94.6758ZM175.4 97H174.155V88.3867H174.101L171.694 89.9863V88.7422L174.155 87.1016H175.4V97ZM181.377 97.1367C180.793 97.1367 180.26 97.0228 179.777 96.7949C179.294 96.5671 178.911 96.2549 178.629 95.8584C178.346 95.4619 178.191 95.013 178.164 94.5117H179.353C179.39 94.8034 179.501 95.0654 179.688 95.2979C179.875 95.5303 180.117 95.7148 180.413 95.8516C180.709 95.9883 181.03 96.0566 181.377 96.0566C181.796 96.0566 182.174 95.9609 182.512 95.7695C182.849 95.5781 183.113 95.3161 183.305 94.9834C183.496 94.6507 183.592 94.2793 183.592 93.8691C183.592 93.4408 183.494 93.0579 183.298 92.7207C183.102 92.3835 182.828 92.1169 182.477 91.9209C182.126 91.7249 181.732 91.627 181.295 91.627C180.866 91.6178 180.497 91.6839 180.187 91.8252C179.877 91.9665 179.631 92.1966 179.449 92.5156H178.26L178.957 87.1016H184.316V88.1953H179.982L179.613 91.0938H179.709C179.937 90.9206 180.21 90.7816 180.529 90.6768C180.848 90.5719 181.176 90.5195 181.514 90.5195C182.133 90.5195 182.694 90.6608 183.195 90.9434C183.696 91.2259 184.088 91.6201 184.371 92.126C184.653 92.6318 184.795 93.2038 184.795 93.8418C184.795 94.4707 184.647 95.0358 184.35 95.5371C184.054 96.0384 183.646 96.4303 183.127 96.7129C182.607 96.9954 182.024 97.1367 181.377 97.1367ZM190.116 97H188.872V88.3867H188.817L186.411 89.9863V88.7422L188.872 87.1016H190.116V97ZM196.312 97.1367C195.674 97.1276 195.086 96.9772 194.548 96.6855C194.01 96.3939 193.568 95.8994 193.222 95.2021C192.876 94.5049 192.702 93.582 192.702 92.4336C192.702 91.276 192.855 90.2871 193.16 89.4668C193.466 88.6465 193.899 88.0244 194.459 87.6006C195.02 87.1768 195.687 86.9648 196.462 86.9648C197.036 86.9648 197.549 87.0742 198 87.293C198.451 87.5117 198.823 87.8193 199.114 88.2158C199.406 88.6123 199.593 89.0703 199.675 89.5898H198.458C198.376 89.2891 198.249 89.0225 198.075 88.79C197.902 88.5576 197.679 88.3776 197.405 88.25C197.132 88.1224 196.818 88.0586 196.462 88.0586C195.924 88.0586 195.462 88.2067 195.074 88.5029C194.687 88.7992 194.389 89.2298 194.179 89.7949C193.969 90.36 193.864 91.0391 193.864 91.832H193.988C194.179 91.5586 194.404 91.3239 194.664 91.1279C194.924 90.932 195.213 90.7816 195.532 90.6768C195.851 90.5719 196.184 90.5195 196.53 90.5195C197.114 90.5195 197.654 90.6608 198.151 90.9434C198.647 91.2259 199.039 91.6156 199.326 92.1123C199.613 92.609 199.757 93.1719 199.757 93.8008C199.757 94.4206 199.613 94.9857 199.326 95.4961C199.039 96.0065 198.634 96.4076 198.11 96.6992C197.585 96.9909 196.986 97.1367 196.312 97.1367ZM196.312 96.0566C196.731 96.0566 197.112 95.9564 197.453 95.7559C197.795 95.5553 198.066 95.2819 198.267 94.9355C198.467 94.5892 198.568 94.2155 198.568 93.8145C198.568 93.4043 198.472 93.0306 198.28 92.6934C198.089 92.3561 197.825 92.0895 197.488 91.8936C197.15 91.6976 196.767 91.5996 196.339 91.5996C195.92 91.5996 195.535 91.7021 195.184 91.9072C194.833 92.1123 194.555 92.3857 194.35 92.7275C194.145 93.0693 194.038 93.4362 194.029 93.8281C194.029 94.2109 194.129 94.5732 194.329 94.915C194.53 95.2568 194.803 95.5326 195.15 95.7422C195.496 95.9518 195.883 96.0566 196.312 96.0566ZM205.064 97H203.82V88.3867H203.766L201.359 89.9863V88.7422L203.82 87.1016H205.064V97ZM212.669 88.2637V88.1953H207.432V87.1016H213.94V88.25L209.415 97H208.129L212.669 88.2637ZM219.152 97H217.907V88.3867H217.853L215.447 89.9863V88.7422L217.907 87.1016H219.152V97ZM225.211 97.1367C224.527 97.1367 223.919 97.0182 223.386 96.7812C222.852 96.5443 222.438 96.2161 222.142 95.7969C221.845 95.3776 221.697 94.9036 221.697 94.375C221.697 93.9557 221.784 93.5638 221.957 93.1992C222.13 92.8346 222.372 92.5339 222.682 92.2969C222.991 92.0599 223.333 91.9141 223.707 91.8594V91.8047C223.388 91.7227 223.105 91.5768 222.859 91.3672C222.613 91.1576 222.422 90.8978 222.285 90.5879C222.148 90.278 222.08 89.9453 222.08 89.5898C222.08 89.0885 222.217 88.6374 222.49 88.2363C222.764 87.8353 223.137 87.5231 223.611 87.2998C224.085 87.0765 224.618 86.9648 225.211 86.9648C225.803 86.9648 226.339 87.0765 226.817 87.2998C227.296 87.5231 227.672 87.8353 227.945 88.2363C228.219 88.6374 228.355 89.0885 228.355 89.5898C228.355 89.9453 228.285 90.278 228.144 90.5879C228.002 90.8978 227.809 91.1576 227.562 91.3672C227.316 91.5768 227.034 91.7227 226.715 91.8047V91.8594C227.088 91.9141 227.428 92.0599 227.733 92.2969C228.039 92.5339 228.283 92.8346 228.465 93.1992C228.647 93.5638 228.738 93.9557 228.738 94.375C228.738 94.9036 228.588 95.3776 228.287 95.7969C227.986 96.2161 227.569 96.5443 227.036 96.7812C226.503 97.0182 225.894 97.1367 225.211 97.1367ZM225.211 96.0566C225.676 96.0566 226.081 95.9837 226.428 95.8379C226.774 95.6921 227.041 95.487 227.227 95.2227C227.414 94.9583 227.508 94.653 227.508 94.3066C227.508 93.9421 227.41 93.6162 227.214 93.3291C227.018 93.042 226.744 92.8164 226.394 92.6523C226.043 92.4883 225.648 92.4062 225.211 92.4062C224.773 92.4062 224.379 92.4883 224.028 92.6523C223.677 92.8164 223.404 93.042 223.208 93.3291C223.012 93.6162 222.919 93.9421 222.928 94.3066C222.919 94.653 223.007 94.9583 223.194 95.2227C223.381 95.487 223.648 95.6921 223.994 95.8379C224.34 95.9837 224.746 96.0566 225.211 96.0566ZM225.211 91.3672C225.585 91.3672 225.92 91.2965 226.216 91.1553C226.512 91.014 226.742 90.8158 226.906 90.5605C227.07 90.3053 227.152 90.0137 227.152 89.6855C227.152 89.3574 227.073 89.068 226.913 88.8174C226.754 88.5667 226.526 88.373 226.229 88.2363C225.933 88.0996 225.594 88.0312 225.211 88.0312C224.828 88.0312 224.489 88.0996 224.192 88.2363C223.896 88.373 223.668 88.5667 223.509 88.8174C223.349 89.068 223.269 89.3574 223.269 89.6855C223.269 90.0137 223.354 90.3053 223.522 90.5605C223.691 90.8158 223.921 91.014 224.213 91.1553C224.505 91.2965 224.837 91.3672 225.211 91.3672ZM234.005 97H232.76V88.3867H232.706L230.299 89.9863V88.7422L232.76 87.1016H234.005V97ZM240.05 86.9648C240.688 86.9648 241.276 87.1107 241.814 87.4023C242.352 87.694 242.791 88.1885 243.133 88.8857C243.475 89.583 243.646 90.5059 243.646 91.6543C243.646 92.8118 243.495 93.8008 243.195 94.6211C242.894 95.4414 242.461 96.0658 241.896 96.4941C241.331 96.9225 240.661 97.1367 239.886 97.1367C239.321 97.1367 238.811 97.0251 238.355 96.8018C237.899 96.5785 237.525 96.2686 237.234 95.8721C236.942 95.4756 236.755 95.0176 236.673 94.498H237.89C237.963 94.7988 238.088 95.0654 238.266 95.2979C238.444 95.5303 238.669 95.7126 238.943 95.8447C239.216 95.9769 239.531 96.043 239.886 96.043C240.424 96.043 240.889 95.8926 241.281 95.5918C241.673 95.291 241.973 94.8558 242.183 94.2861C242.393 93.7165 242.497 93.0352 242.497 92.2422H242.361C242.169 92.5156 241.944 92.7503 241.684 92.9463C241.424 93.1423 241.137 93.2926 240.823 93.3975C240.508 93.5023 240.178 93.5547 239.831 93.5547C239.248 93.5547 238.708 93.4134 238.211 93.1309C237.715 92.8483 237.32 92.4587 237.029 91.9619C236.737 91.4652 236.591 90.9069 236.591 90.2871C236.591 89.6673 236.735 89.1045 237.022 88.5986C237.309 88.0928 237.715 87.6917 238.239 87.3955C238.763 87.0993 239.367 86.9557 240.05 86.9648ZM240.05 88.0449C239.631 88.0449 239.248 88.1452 238.902 88.3457C238.555 88.5462 238.284 88.8174 238.088 89.1592C237.892 89.501 237.794 89.8724 237.794 90.2734C237.794 90.6745 237.89 91.0436 238.081 91.3809C238.273 91.7181 238.537 91.9847 238.874 92.1807C239.212 92.3766 239.59 92.4746 240.009 92.4746C240.428 92.4746 240.813 92.3698 241.164 92.1602C241.515 91.9505 241.793 91.6748 241.998 91.333C242.203 90.9912 242.306 90.6289 242.306 90.2461C242.306 89.8633 242.208 89.5033 242.012 89.166C241.816 88.8288 241.547 88.5576 241.205 88.3525C240.864 88.1475 240.479 88.0449 240.05 88.0449ZM245.439 96.0977L248.816 92.543C249.263 92.069 249.605 91.6885 249.842 91.4014C250.079 91.1143 250.257 90.834 250.375 90.5605C250.494 90.2871 250.553 90.0046 250.553 89.7129C250.553 89.3848 250.466 89.0931 250.293 88.8379C250.12 88.5827 249.885 88.3844 249.589 88.2432C249.293 88.1019 248.958 88.0312 248.584 88.0312C248.201 88.0312 247.864 88.1087 247.572 88.2637C247.281 88.4186 247.055 88.6374 246.896 88.9199C246.736 89.2025 246.656 89.526 246.656 89.8906H245.494C245.494 89.3164 245.629 88.8083 245.897 88.3662C246.166 87.9242 246.54 87.5801 247.019 87.334C247.497 87.0879 248.033 86.9648 248.625 86.9648C249.217 86.9648 249.746 87.0856 250.211 87.3271C250.676 87.5687 251.04 87.8991 251.305 88.3184C251.569 88.7376 251.701 89.2025 251.701 89.7129C251.701 90.0866 251.633 90.4466 251.496 90.793C251.359 91.1393 251.132 91.5199 250.813 91.9346C250.494 92.3493 250.033 92.8665 249.432 93.4863L247.162 95.8242V95.9062H251.879V97H245.453L245.439 96.0977ZM257.022 97.1367C256.293 97.1367 255.671 96.9385 255.156 96.542C254.641 96.1455 254.247 95.5667 253.973 94.8057C253.7 94.0446 253.563 93.1263 253.563 92.0508C253.563 90.9844 253.7 90.0706 253.973 89.3096C254.247 88.5485 254.643 87.9674 255.163 87.5664C255.682 87.1654 256.302 86.9648 257.022 86.9648C257.742 86.9648 258.362 87.1654 258.882 87.5664C259.401 87.9674 259.798 88.5485 260.071 89.3096C260.344 90.0706 260.481 90.9844 260.481 92.0508C260.481 93.1263 260.347 94.0446 260.078 94.8057C259.809 95.5667 259.415 96.1455 258.895 96.542C258.376 96.9385 257.751 97.1367 257.022 97.1367ZM257.022 96.043C257.496 96.043 257.902 95.888 258.239 95.5781C258.576 95.2682 258.834 94.8148 259.011 94.2178C259.189 93.6208 259.278 92.8984 259.278 92.0508C259.278 91.2031 259.189 90.4785 259.011 89.877C258.834 89.2754 258.576 88.8174 258.239 88.5029C257.902 88.1885 257.496 88.0312 257.022 88.0312C256.548 88.0312 256.143 88.1885 255.805 88.5029C255.468 88.8174 255.208 89.2754 255.026 89.877C254.844 90.4785 254.753 91.2031 254.753 92.0508C254.753 92.8984 254.842 93.6208 255.019 94.2178C255.197 94.8148 255.457 95.2682 255.799 95.5781C256.14 95.888 256.548 96.043 257.022 96.043ZM262.22 96.0977L265.597 92.543C266.044 92.069 266.385 91.6885 266.622 91.4014C266.859 91.1143 267.037 90.834 267.156 90.5605C267.274 90.2871 267.333 90.0046 267.333 89.7129C267.333 89.3848 267.247 89.0931 267.074 88.8379C266.9 88.5827 266.666 88.3844 266.37 88.2432C266.073 88.1019 265.738 88.0312 265.365 88.0312C264.982 88.0312 264.645 88.1087 264.353 88.2637C264.061 88.4186 263.836 88.6374 263.676 88.9199C263.517 89.2025 263.437 89.526 263.437 89.8906H262.275C262.275 89.3164 262.409 88.8083 262.678 88.3662C262.947 87.9242 263.321 87.5801 263.799 87.334C264.278 87.0879 264.813 86.9648 265.406 86.9648C265.998 86.9648 266.527 87.0856 266.992 87.3271C267.456 87.5687 267.821 87.8991 268.085 88.3184C268.35 88.7376 268.482 89.2025 268.482 89.7129C268.482 90.0866 268.413 90.4466 268.277 90.793C268.14 91.1393 267.912 91.5199 267.593 91.9346C267.274 92.3493 266.814 92.8665 266.212 93.4863L263.943 95.8242V95.9062H268.66V97H262.234L262.22 96.0977ZM274.063 97H272.818V88.3867H272.764L270.358 89.9863V88.7422L272.818 87.1016H274.063V97ZM276.8 96.0977L280.177 92.543C280.623 92.069 280.965 91.6885 281.202 91.4014C281.439 91.1143 281.617 90.834 281.735 90.5605C281.854 90.2871 281.913 90.0046 281.913 89.7129C281.913 89.3848 281.826 89.0931 281.653 88.8379C281.48 88.5827 281.245 88.3844 280.949 88.2432C280.653 88.1019 280.318 88.0312 279.944 88.0312C279.561 88.0312 279.224 88.1087 278.932 88.2637C278.641 88.4186 278.415 88.6374 278.256 88.9199C278.096 89.2025 278.016 89.526 278.016 89.8906H276.854C276.854 89.3164 276.989 88.8083 277.258 88.3662C277.526 87.9242 277.9 87.5801 278.379 87.334C278.857 87.0879 279.393 86.9648 279.985 86.9648C280.578 86.9648 281.106 87.0856 281.571 87.3271C282.036 87.5687 282.401 87.8991 282.665 88.3184C282.929 88.7376 283.061 89.2025 283.061 89.7129C283.061 90.0866 282.993 90.4466 282.856 90.793C282.72 91.1393 282.492 91.5199 282.173 91.9346C281.854 92.3493 281.393 92.8665 280.792 93.4863L278.522 95.8242V95.9062H283.239V97H276.813L276.8 96.0977ZM285.128 96.0977L288.505 92.543C288.952 92.069 289.294 91.6885 289.531 91.4014C289.768 91.1143 289.945 90.834 290.064 90.5605C290.182 90.2871 290.242 90.0046 290.242 89.7129C290.242 89.3848 290.155 89.0931 289.982 88.8379C289.809 88.5827 289.574 88.3844 289.278 88.2432C288.982 88.1019 288.647 88.0312 288.273 88.0312C287.89 88.0312 287.553 88.1087 287.261 88.2637C286.97 88.4186 286.744 88.6374 286.584 88.9199C286.425 89.2025 286.345 89.526 286.345 89.8906H285.183C285.183 89.3164 285.318 88.8083 285.586 88.3662C285.855 87.9242 286.229 87.5801 286.707 87.334C287.186 87.0879 287.721 86.9648 288.314 86.9648C288.906 86.9648 289.435 87.0856 289.9 87.3271C290.365 87.5687 290.729 87.8991 290.994 88.3184C291.258 88.7376 291.39 89.2025 291.39 89.7129C291.39 90.0866 291.322 90.4466 291.185 90.793C291.048 91.1393 290.82 91.5199 290.501 91.9346C290.182 92.3493 289.722 92.8665 289.121 93.4863L286.851 95.8242V95.9062H291.568V97H285.142L285.128 96.0977ZM293.457 96.0977L296.834 92.543C297.281 92.069 297.623 91.6885 297.86 91.4014C298.097 91.1143 298.274 90.834 298.393 90.5605C298.511 90.2871 298.57 90.0046 298.57 89.7129C298.57 89.3848 298.484 89.0931 298.311 88.8379C298.138 88.5827 297.903 88.3844 297.607 88.2432C297.31 88.1019 296.975 88.0312 296.602 88.0312C296.219 88.0312 295.882 88.1087 295.59 88.2637C295.298 88.4186 295.073 88.6374 294.913 88.9199C294.754 89.2025 294.674 89.526 294.674 89.8906H293.512C293.512 89.3164 293.646 88.8083 293.915 88.3662C294.184 87.9242 294.558 87.5801 295.036 87.334C295.515 87.0879 296.05 86.9648 296.643 86.9648C297.235 86.9648 297.764 87.0856 298.229 87.3271C298.694 87.5687 299.058 87.8991 299.322 88.3184C299.587 88.7376 299.719 89.2025 299.719 89.7129C299.719 90.0866 299.651 90.4466 299.514 90.793C299.377 91.1393 299.149 91.5199 298.83 91.9346C298.511 92.3493 298.051 92.8665 297.449 93.4863L295.18 95.8242V95.9062H299.897V97H293.471L293.457 96.0977ZM305.218 97.1367C304.57 97.1367 303.989 97.0273 303.474 96.8086C302.959 96.5898 302.554 96.2822 302.258 95.8857C301.961 95.4893 301.8 95.0312 301.772 94.5117H303.016C303.044 94.8125 303.155 95.0791 303.351 95.3115C303.547 95.5439 303.807 95.724 304.131 95.8516C304.454 95.9792 304.812 96.043 305.204 96.043C305.632 96.043 306.02 95.9678 306.366 95.8174C306.712 95.667 306.981 95.4619 307.173 95.2021C307.364 94.9424 307.46 94.6439 307.46 94.3066C307.46 93.9421 307.366 93.6208 307.18 93.3428C306.993 93.0648 306.719 92.8483 306.359 92.6934C305.999 92.5384 305.564 92.4609 305.054 92.4609H304.247V91.3809H305.054C305.455 91.3809 305.81 91.3102 306.12 91.1689C306.43 91.0277 306.669 90.8294 306.838 90.5742C307.006 90.319 307.091 90.0228 307.091 89.6855C307.091 89.3574 307.015 89.068 306.865 88.8174C306.715 88.5667 306.5 88.373 306.223 88.2363C305.945 88.0996 305.619 88.0312 305.245 88.0312C304.889 88.0312 304.557 88.0951 304.247 88.2227C303.937 88.3503 303.684 88.5303 303.488 88.7627C303.292 88.9951 303.185 89.2708 303.167 89.5898H301.977C302.005 89.0794 302.167 88.6237 302.463 88.2227C302.759 87.8216 303.153 87.5117 303.645 87.293C304.138 87.0742 304.675 86.9648 305.259 86.9648C305.869 86.9648 306.405 87.0833 306.865 87.3203C307.325 87.5573 307.679 87.8786 307.925 88.2842C308.171 88.6898 308.289 89.1341 308.28 89.6172C308.289 89.9818 308.225 90.3167 308.089 90.6221C307.952 90.9274 307.756 91.1849 307.501 91.3945C307.246 91.6042 306.945 91.7591 306.598 91.8594V91.9277C307.027 91.9915 307.396 92.1328 307.706 92.3516C308.016 92.5703 308.255 92.846 308.424 93.1787C308.592 93.5114 308.672 93.8874 308.663 94.3066C308.672 94.8353 308.526 95.3161 308.225 95.749C307.925 96.182 307.51 96.5215 306.981 96.7676C306.453 97.0137 305.865 97.1367 305.218 97.1367ZM310.539 96.0977L313.916 92.543C314.362 92.069 314.704 91.6885 314.941 91.4014C315.178 91.1143 315.356 90.834 315.474 90.5605C315.593 90.2871 315.652 90.0046 315.652 89.7129C315.652 89.3848 315.565 89.0931 315.392 88.8379C315.219 88.5827 314.984 88.3844 314.688 88.2432C314.392 88.1019 314.057 88.0312 313.683 88.0312C313.3 88.0312 312.963 88.1087 312.671 88.2637C312.38 88.4186 312.154 88.6374 311.995 88.9199C311.835 89.2025 311.755 89.526 311.755 89.8906H310.593C310.593 89.3164 310.728 88.8083 310.997 88.3662C311.265 87.9242 311.639 87.5801 312.118 87.334C312.596 87.0879 313.132 86.9648 313.724 86.9648C314.317 86.9648 314.845 87.0856 315.31 87.3271C315.775 87.5687 316.14 87.8991 316.404 88.3184C316.668 88.7376 316.8 89.2025 316.8 89.7129C316.8 90.0866 316.732 90.4466 316.595 90.793C316.459 91.1393 316.231 91.5199 315.912 91.9346C315.593 92.3493 315.132 92.8665 314.531 93.4863L312.261 95.8242V95.9062H316.978V97H310.552L310.539 96.0977ZM318.416 93.9648L322.873 87.1016H323.612V88.6602H323.092L319.742 93.8145V93.8965H325.772V94.9766H318.416V93.9648ZM323.215 94.6758V94.1973V87.1016H324.391V97H323.215V94.6758ZM327.497 96.0977L330.874 92.543C331.321 92.069 331.662 91.6885 331.899 91.4014C332.136 91.1143 332.314 90.834 332.433 90.5605C332.551 90.2871 332.61 90.0046 332.61 89.7129C332.61 89.3848 332.524 89.0931 332.35 88.8379C332.177 88.5827 331.943 88.3844 331.646 88.2432C331.35 88.1019 331.015 88.0312 330.642 88.0312C330.259 88.0312 329.921 88.1087 329.63 88.2637C329.338 88.4186 329.113 88.6374 328.953 88.9199C328.794 89.2025 328.714 89.526 328.714 89.8906H327.552C327.552 89.3164 327.686 88.8083 327.955 88.3662C328.224 87.9242 328.598 87.5801 329.076 87.334C329.555 87.0879 330.09 86.9648 330.683 86.9648C331.275 86.9648 331.804 87.0856 332.268 87.3271C332.733 87.5687 333.098 87.8991 333.362 88.3184C333.627 88.7376 333.759 89.2025 333.759 89.7129C333.759 90.0866 333.69 90.4466 333.554 90.793C333.417 91.1393 333.189 91.5199 332.87 91.9346C332.551 92.3493 332.091 92.8665 331.489 93.4863L329.22 95.8242V95.9062H333.936V97H327.511L327.497 96.0977ZM336.687 97.082C336.532 97.082 336.386 97.041 336.25 96.959C336.113 96.877 336.006 96.7676 335.928 96.6309C335.851 96.4941 335.812 96.3483 335.812 96.1934C335.812 96.0384 335.851 95.8926 335.928 95.7559C336.006 95.6191 336.113 95.512 336.25 95.4346C336.386 95.3571 336.532 95.3184 336.687 95.3184C336.842 95.3184 336.988 95.3571 337.125 95.4346C337.261 95.512 337.368 95.6191 337.446 95.7559C337.523 95.8926 337.562 96.0384 337.562 96.1934C337.562 96.3483 337.523 96.4941 337.446 96.6309C337.368 96.7676 337.261 96.877 337.125 96.959C336.988 97.041 336.842 97.082 336.687 97.082ZM340.354 97.082C340.199 97.082 340.053 97.041 339.916 96.959C339.78 96.877 339.672 96.7676 339.595 96.6309C339.518 96.4941 339.479 96.3483 339.479 96.1934C339.479 96.0384 339.518 95.8926 339.595 95.7559C339.672 95.6191 339.78 95.512 339.916 95.4346C340.053 95.3571 340.199 95.3184 340.354 95.3184C340.509 95.3184 340.655 95.3571 340.791 95.4346C340.928 95.512 341.035 95.6191 341.113 95.7559C341.19 95.8926 341.229 96.0384 341.229 96.1934C341.229 96.3483 341.19 96.4941 341.113 96.6309C341.035 96.7676 340.928 96.877 340.791 96.959C340.655 97.041 340.509 97.082 340.354 97.082ZM344.02 97.082C343.866 97.082 343.72 97.041 343.583 96.959C343.446 96.877 343.339 96.7676 343.262 96.6309C343.184 96.4941 343.145 96.3483 343.145 96.1934C343.145 96.0384 343.184 95.8926 343.262 95.7559C343.339 95.6191 343.446 95.512 343.583 95.4346C343.72 95.3571 343.866 95.3184 344.02 95.3184C344.175 95.3184 344.321 95.3571 344.458 95.4346C344.595 95.512 344.702 95.6191 344.779 95.7559C344.857 95.8926 344.895 96.0384 344.895 96.1934C344.895 96.3483 344.857 96.4941 344.779 96.6309C344.702 96.7676 344.595 96.877 344.458 96.959C344.321 97.041 344.175 97.082 344.02 97.082Z" fill="#4C41D6"/>
<path d="M0.683594 66.9648L5.14062 60.1016H5.87891V61.6602H5.35938L2.00977 66.8145V66.8965H8.03906V67.9766H0.683594V66.9648ZM5.48242 67.6758V67.1973V60.1016H6.6582V70H5.48242V67.6758ZM13.0183 70.1367C12.2891 70.1367 11.667 69.9385 11.152 69.542C10.6371 69.1455 10.2429 68.5667 9.96942 67.8057C9.69598 67.0446 9.55927 66.1263 9.55927 65.0508C9.55927 63.9844 9.69598 63.0706 9.96942 62.3096C10.2429 61.5485 10.6393 60.9674 11.1589 60.5664C11.6784 60.1654 12.2982 59.9648 13.0183 59.9648C13.7383 59.9648 14.3581 60.1654 14.8776 60.5664C15.3972 60.9674 15.7936 61.5485 16.0671 62.3096C16.3405 63.0706 16.4772 63.9844 16.4772 65.0508C16.4772 66.1263 16.3428 67.0446 16.0739 67.8057C15.805 68.5667 15.4108 69.1455 14.8913 69.542C14.3718 69.9385 13.7474 70.1367 13.0183 70.1367ZM13.0183 69.043C13.4922 69.043 13.8978 68.888 14.235 68.5781C14.5723 68.2682 14.8298 67.8148 15.0075 67.2178C15.1852 66.6208 15.2741 65.8984 15.2741 65.0508C15.2741 64.2031 15.1852 63.4785 15.0075 62.877C14.8298 62.2754 14.5723 61.8174 14.235 61.5029C13.8978 61.1885 13.4922 61.0312 13.0183 61.0312C12.5443 61.0312 12.1387 61.1885 11.8015 61.5029C11.4642 61.8174 11.2044 62.2754 11.0222 62.877C10.8399 63.4785 10.7487 64.2031 10.7487 65.0508C10.7487 65.8984 10.8376 66.6208 11.0153 67.2178C11.1931 67.8148 11.4528 68.2682 11.7946 68.5781C12.1364 68.888 12.5443 69.043 13.0183 69.043ZM28.183 71.1074H27.1576V58.9531H28.183V71.1074ZM27.431 64.7363H25.0521V63.8477H27.431V64.7363ZM25.3666 70.4785H24.3822V59.2266H25.3666V70.4785ZM19.0228 67.1836C20.0163 67.1836 20.8412 67.1608 21.4974 67.1152C22.1537 67.0697 22.8191 66.9785 23.4935 66.8418L23.5892 67.7441C22.8965 67.8809 22.2152 67.9743 21.5453 68.0244C20.8754 68.0745 20.0345 68.0996 19.0228 68.0996H18.2435V67.1836H19.0228ZM22.7963 61.332H19.3099V67.6074H18.2435V60.4434H22.7963V61.332ZM43.1316 65.8301H42.0652V58.9668H43.1316V65.8301ZM44.9773 62.6582H42.8582V61.7559H44.9773V62.6582ZM43.1316 70.9434H35.4343V66.5H43.1316V70.9434ZM36.4871 70.0684H42.0925V67.3477H36.4871V70.0684ZM35.2976 64.4355H34.2175V59.582H35.2976V64.4355ZM35.1882 63.998C36.127 63.998 37.0544 63.9548 37.9705 63.8682C38.8865 63.7816 39.823 63.6426 40.78 63.4512L40.9168 64.3535C39.9324 64.5449 38.9753 64.6839 38.0457 64.7705C37.116 64.8571 36.1635 64.9004 35.1882 64.9004H34.2175V63.998H35.1882ZM49.7514 62.6855C49.7514 63.5059 49.5942 64.3262 49.2797 65.1465C48.9653 65.9668 48.5437 66.696 48.0151 67.334C47.4864 67.972 46.9122 68.4505 46.2924 68.7695L45.6362 67.9219C46.2195 67.6393 46.7595 67.2155 47.2563 66.6504C47.753 66.0853 48.1518 65.4518 48.4526 64.75C48.7534 64.0482 48.9038 63.36 48.9038 62.6855V60.6758H49.7514V62.6855ZM49.9565 62.6855C49.9565 63.3236 50.0955 63.9707 50.3735 64.627C50.6515 65.2832 51.032 65.8779 51.5151 66.4111C51.9982 66.9443 52.5314 67.3477 53.1147 67.6211L52.4995 68.4688C51.8705 68.1589 51.2963 67.7008 50.7768 67.0947C50.2573 66.4886 49.8471 65.7982 49.5463 65.0234C49.2455 64.2487 49.0952 63.4694 49.0952 62.6855V60.6758H49.9565V62.6855ZM52.6909 61.0996H46.0737V60.2109H52.6909V61.0996ZM55.2475 71.1074H54.1811V58.9531H55.2475V71.1074ZM57.2846 64.791H55.0014V63.875H57.2846V64.791ZM65.575 60.8398C65.575 61.6055 65.4337 62.3232 65.1512 62.9932C64.8686 63.6631 64.4767 64.2464 63.9754 64.7432C63.4741 65.2399 62.8862 65.6204 62.2117 65.8848L61.6375 65.0234C62.2391 64.7956 62.77 64.472 63.2303 64.0527C63.6906 63.6335 64.0483 63.1458 64.3035 62.5898C64.5587 62.0339 64.6863 61.4505 64.6863 60.8398V59.582H65.575V60.8398ZM65.7391 60.9219C65.7391 61.4596 65.869 61.9814 66.1287 62.4873C66.3885 62.9932 66.7462 63.4375 67.202 63.8203C67.6577 64.2031 68.1772 64.4948 68.7606 64.6953L68.1727 65.543C67.5255 65.306 66.9513 64.9574 66.45 64.4971C65.9487 64.0368 65.5591 63.499 65.2811 62.8838C65.0031 62.2686 64.8641 61.6146 64.8641 60.9219V59.582H65.7391V60.9219ZM71.1805 66.3496H70.1141V58.9531H71.1805V66.3496ZM73.0125 63.0273H70.8797V62.125H73.0125V63.0273ZM67.284 66.6641C68.1134 66.6641 68.8289 66.7507 69.4305 66.9238C70.032 67.097 70.4923 67.3477 70.8113 67.6758C71.1304 68.0039 71.2899 68.4004 71.2899 68.8652C71.2899 69.3301 71.1304 69.7288 70.8113 70.0615C70.4923 70.3942 70.0343 70.6471 69.4373 70.8203C68.8403 70.9935 68.1225 71.0801 67.284 71.0801C66.4546 71.0801 65.7368 70.9935 65.1307 70.8203C64.5246 70.6471 64.0597 70.3942 63.7361 70.0615C63.4126 69.7288 63.2508 69.3301 63.2508 68.8652C63.2508 68.4004 63.4126 68.0039 63.7361 67.6758C64.0597 67.3477 64.5246 67.097 65.1307 66.9238C65.7368 66.7507 66.4546 66.6641 67.284 66.6641ZM67.284 67.5254C66.6824 67.5254 66.1583 67.5778 65.7117 67.6826C65.2651 67.7874 64.9233 67.9424 64.6863 68.1475C64.4494 68.3525 64.3309 68.5918 64.3309 68.8652C64.3309 69.1478 64.4494 69.3916 64.6863 69.5967C64.9233 69.8018 65.2628 69.9567 65.7049 70.0615C66.147 70.1663 66.6733 70.2233 67.284 70.2324C67.9038 70.2233 68.4347 70.1663 68.8768 70.0615C69.3188 69.9567 69.6583 69.8018 69.8953 69.5967C70.1323 69.3916 70.2508 69.1478 70.2508 68.8652C70.2508 68.5827 70.1323 68.3411 69.8953 68.1406C69.6583 67.9401 69.3166 67.7874 68.8699 67.6826C68.4233 67.5778 67.8947 67.5254 67.284 67.5254ZM77.7866 62.2207C77.7866 63.0957 77.6385 63.9525 77.3423 64.791C77.0461 65.6296 76.6405 66.3724 76.1255 67.0195C75.6105 67.6667 75.034 68.1634 74.396 68.5098L73.7124 67.6484C74.3049 67.3568 74.8426 66.9238 75.3257 66.3496C75.8088 65.7754 76.1939 65.1237 76.481 64.3945C76.7681 63.6654 76.9116 62.9408 76.9116 62.2207V60.0059H77.7866V62.2207ZM77.9644 62.2207C77.9644 62.9134 78.1056 63.6084 78.3882 64.3057C78.6707 65.0029 79.0536 65.625 79.5366 66.1719C80.0197 66.7188 80.5438 67.1335 81.1089 67.416L80.4526 68.2773C79.8237 67.9401 79.2541 67.4593 78.7437 66.835C78.2332 66.2106 77.8322 65.4951 77.5405 64.6885C77.2489 63.8818 77.103 63.0592 77.103 62.2207V60.0059H77.9644V62.2207ZM83.2964 71.1074H82.23V58.9531H83.2964V71.1074ZM85.3335 64.8184H83.0503V63.8887H85.3335V64.8184ZM90.3127 67.9766H89.2326V65.0918H90.3127V67.9766ZM89.7658 59.7461C90.3856 59.7461 90.9416 59.8669 91.4338 60.1084C91.926 60.3499 92.3111 60.6872 92.5891 61.1201C92.8671 61.5531 93.0061 62.0475 93.0061 62.6035C93.0061 63.1595 92.8671 63.6517 92.5891 64.0801C92.3111 64.5085 91.926 64.8434 91.4338 65.085C90.9416 65.3265 90.3856 65.4473 89.7658 65.4473C89.1369 65.4473 88.5764 65.3265 88.0842 65.085C87.592 64.8434 87.2092 64.5085 86.9357 64.0801C86.6623 63.6517 86.5256 63.1595 86.5256 62.6035C86.5256 62.0475 86.6623 61.5531 86.9357 61.1201C87.2092 60.6872 87.592 60.3499 88.0842 60.1084C88.5764 59.8669 89.1369 59.7461 89.7658 59.7461ZM89.7658 60.6758C89.3465 60.6758 88.9706 60.7578 88.6379 60.9219C88.3052 61.0859 88.0454 61.3138 87.8586 61.6055C87.6717 61.8971 87.5783 62.2298 87.5783 62.6035C87.5783 62.9772 87.6717 63.3099 87.8586 63.6016C88.0454 63.8932 88.3052 64.1211 88.6379 64.2852C88.9706 64.4492 89.3465 64.5312 89.7658 64.5312C90.1851 64.5312 90.5588 64.4492 90.8869 64.2852C91.215 64.1211 91.4748 63.8932 91.6662 63.6016C91.8576 63.3099 91.9533 62.9772 91.9533 62.6035C91.9533 62.2298 91.8576 61.8971 91.6662 61.6055C91.4748 61.3138 91.215 61.0859 90.8869 60.9219C90.5588 60.7578 90.1851 60.6758 89.7658 60.6758ZM95.4943 71.1074H94.4279V58.9531H95.4943V71.1074ZM97.4768 64.9004H95.2072V63.9707H97.4768V64.9004ZM85.9514 67.5664C87.0269 67.5573 87.9475 67.5459 88.7131 67.5322C89.4787 67.5186 90.3013 67.4867 91.1809 67.4365C92.0604 67.3864 92.883 67.3112 93.6486 67.2109L93.717 68.0176C92.924 68.1543 92.0878 68.2568 91.2082 68.3252C90.3286 68.3936 89.4833 68.4346 88.6721 68.4482C87.8609 68.4619 87.0132 68.4688 86.1291 68.4688L85.9514 67.5664ZM112.015 68.0039H110.935V58.9531H112.015V68.0039ZM108.761 60.8262H102.308V59.9512H108.761V60.8262ZM101.966 65.2422C103.406 65.2331 104.712 65.208 105.883 65.167C107.055 65.126 108.146 65.0508 109.158 64.9414L109.212 65.748C108.164 65.9121 107.043 66.0215 105.849 66.0762C104.655 66.1309 103.406 66.1582 102.103 66.1582L101.966 65.2422ZM104.578 65.4199H103.539V60.7031H104.578V65.4199ZM107.517 65.4199H106.478V60.7031H107.517V65.4199ZM111.496 62.166H108.857V61.2773H111.496V62.166ZM111.496 64.4766H108.857V63.5742H111.496V64.4766ZM112.343 70.8477H104.181V69.9453H112.343V70.8477ZM105.261 70.5059H104.181V67.252H105.261V70.5059ZM123.967 65.5293H115.573V64.6543H123.967V65.5293ZM125.28 69.5762H114.151V68.6738H125.28V69.5762ZM120.207 69.043H119.155V65.0371H120.207V69.043ZM123.844 60.8262H116.653V65.0645H115.573V59.9512H123.844V60.8262ZM137.491 69.6035H126.362V68.7012H137.491V69.6035ZM132.419 69.0977H131.366V66.0898H132.419V69.0977ZM136.083 63.5332H128.823V65.9941H127.757V62.6582H135.03V60.7441H127.729V59.8555H136.083V63.5332ZM136.37 66.4043H127.757V65.5156H136.37V66.4043ZM148.078 60.6758C148.078 61.3685 147.851 62.0065 147.395 62.5898C146.939 63.1732 146.347 63.6585 145.617 64.0459C144.888 64.4333 144.109 64.6999 143.28 64.8457L142.856 63.998C143.567 63.8887 144.253 63.6722 144.913 63.3486C145.574 63.0251 146.11 62.6286 146.52 62.1592C146.93 61.6898 147.135 61.1953 147.135 60.6758V60.1562H148.078V60.6758ZM148.338 60.6758C148.338 61.1953 148.543 61.6898 148.953 62.1592C149.364 62.6286 149.899 63.0251 150.56 63.3486C151.221 63.6722 151.907 63.8887 152.617 63.998L152.221 64.8457C151.382 64.6999 150.596 64.4355 149.863 64.0527C149.129 63.6699 148.536 63.1846 148.085 62.5967C147.634 62.0088 147.409 61.3685 147.409 60.6758V60.1562H148.338V60.6758ZM148.242 71.1074H147.19V66.459H148.242V71.1074ZM153.274 66.7734H142.2V65.8848H153.274V66.7734ZM152.221 60.5938H143.239V59.7188H152.221V60.5938ZM161.892 70.1367C161.245 70.1367 160.664 70.0273 160.149 69.8086C159.634 69.5898 159.229 69.2822 158.932 68.8857C158.636 68.4893 158.474 68.0312 158.447 67.5117H159.691C159.718 67.8125 159.83 68.0791 160.026 68.3115C160.222 68.5439 160.482 68.724 160.805 68.8516C161.129 68.9792 161.487 69.043 161.879 69.043C162.307 69.043 162.694 68.9678 163.041 68.8174C163.387 68.667 163.656 68.4619 163.847 68.2021C164.039 67.9424 164.134 67.6439 164.134 67.3066C164.134 66.9421 164.041 66.6208 163.854 66.3428C163.667 66.0648 163.394 65.8483 163.034 65.6934C162.674 65.5384 162.239 65.4609 161.728 65.4609H160.922V64.3809H161.728C162.129 64.3809 162.485 64.3102 162.795 64.1689C163.105 64.0277 163.344 63.8294 163.512 63.5742C163.681 63.319 163.765 63.0228 163.765 62.6855C163.765 62.3574 163.69 62.068 163.54 61.8174C163.389 61.5667 163.175 61.373 162.897 61.2363C162.619 61.0996 162.293 61.0312 161.92 61.0312C161.564 61.0312 161.231 61.0951 160.922 61.2227C160.612 61.3503 160.359 61.5303 160.163 61.7627C159.967 61.9951 159.86 62.2708 159.842 62.5898H158.652C158.679 62.0794 158.841 61.6237 159.137 61.2227C159.434 60.8216 159.828 60.5117 160.32 60.293C160.812 60.0742 161.35 59.9648 161.933 59.9648C162.544 59.9648 163.079 60.0833 163.54 60.3203C164 60.5573 164.353 60.8786 164.599 61.2842C164.845 61.6898 164.964 62.1341 164.955 62.6172C164.964 62.9818 164.9 63.3167 164.763 63.6221C164.627 63.9274 164.431 64.1849 164.175 64.3945C163.92 64.6042 163.62 64.7591 163.273 64.8594V64.9277C163.702 64.9915 164.071 65.1328 164.381 65.3516C164.69 65.5703 164.93 65.846 165.098 66.1787C165.267 66.5114 165.347 66.8874 165.338 67.3066C165.347 67.8353 165.201 68.3161 164.9 68.749C164.599 69.182 164.185 69.5215 163.656 69.7676C163.127 70.0137 162.539 70.1367 161.892 70.1367ZM170.235 59.4043C170.836 59.4043 171.376 59.5182 171.855 59.7461C172.333 59.974 172.707 60.293 172.976 60.7031C173.245 61.1133 173.379 61.5781 173.379 62.0977C173.379 62.6172 173.245 63.0798 172.976 63.4854C172.707 63.891 172.333 64.2077 171.855 64.4355C171.376 64.6634 170.836 64.7773 170.235 64.7773C169.624 64.7773 169.079 64.6634 168.601 64.4355C168.122 64.2077 167.749 63.891 167.48 63.4854C167.211 63.0798 167.077 62.6172 167.077 62.0977C167.077 61.5781 167.211 61.1133 167.48 60.7031C167.749 60.293 168.122 59.974 168.601 59.7461C169.079 59.5182 169.624 59.4043 170.235 59.4043ZM170.235 60.3066C169.834 60.3066 169.474 60.3818 169.155 60.5322C168.836 60.6826 168.585 60.8945 168.403 61.168C168.22 61.4414 168.129 61.7513 168.129 62.0977C168.129 62.444 168.22 62.7539 168.403 63.0273C168.585 63.3008 168.836 63.515 169.155 63.6699C169.474 63.8249 169.834 63.9023 170.235 63.9023C170.636 63.9023 170.996 63.8249 171.315 63.6699C171.634 63.515 171.884 63.3008 172.067 63.0273C172.249 62.7539 172.34 62.444 172.34 62.0977C172.34 61.7513 172.249 61.4414 172.067 61.168C171.884 60.8945 171.634 60.6826 171.315 60.5322C170.996 60.3818 170.636 60.3066 170.235 60.3066ZM176.825 65.2012H175.758V58.9531H176.825V65.2012ZM176.825 68.7148H170.002V70.5605H168.95V67.9082H175.758V66.6504H168.922V65.7891H176.825V68.7148ZM177.262 70.9434H168.95V70.082H177.262V70.9434ZM183.051 69.0977L186.428 65.543C186.874 65.069 187.216 64.6885 187.453 64.4014C187.69 64.1143 187.868 63.834 187.986 63.5605C188.105 63.2871 188.164 63.0046 188.164 62.7129C188.164 62.3848 188.077 62.0931 187.904 61.8379C187.731 61.5827 187.496 61.3844 187.2 61.2432C186.904 61.1019 186.569 61.0312 186.195 61.0312C185.812 61.0312 185.475 61.1087 185.183 61.2637C184.892 61.4186 184.666 61.6374 184.507 61.9199C184.347 62.2025 184.267 62.526 184.267 62.8906H183.105C183.105 62.3164 183.24 61.8083 183.509 61.3662C183.777 60.9242 184.151 60.5801 184.63 60.334C185.108 60.0879 185.644 59.9648 186.236 59.9648C186.829 59.9648 187.357 60.0856 187.822 60.3271C188.287 60.5687 188.651 60.8991 188.916 61.3184C189.18 61.7376 189.312 62.2025 189.312 62.7129C189.312 63.0866 189.244 63.4466 189.107 63.793C188.97 64.1393 188.743 64.5199 188.424 64.9346C188.105 65.3493 187.644 65.8665 187.043 66.4863L184.773 68.8242V68.9062H189.49V70H183.064L183.051 69.0977ZM192.241 70.082C192.086 70.082 191.94 70.041 191.803 69.959C191.666 69.877 191.559 69.7676 191.482 69.6309C191.404 69.4941 191.366 69.3483 191.366 69.1934C191.366 69.0384 191.404 68.8926 191.482 68.7559C191.559 68.6191 191.666 68.512 191.803 68.4346C191.94 68.3571 192.086 68.3184 192.241 68.3184C192.396 68.3184 192.541 68.3571 192.678 68.4346C192.815 68.512 192.922 68.6191 192.999 68.7559C193.077 68.8926 193.116 69.0384 193.116 69.1934C193.116 69.3483 193.077 69.4941 192.999 69.6309C192.922 69.7676 192.815 69.877 192.678 69.959C192.541 70.041 192.396 70.082 192.241 70.082ZM198.095 70.1367C197.512 70.1367 196.978 70.0228 196.495 69.7949C196.012 69.5671 195.629 69.2549 195.347 68.8584C195.064 68.4619 194.909 68.013 194.882 67.5117H196.071C196.108 67.8034 196.22 68.0654 196.406 68.2979C196.593 68.5303 196.835 68.7148 197.131 68.8516C197.427 68.9883 197.749 69.0566 198.095 69.0566C198.514 69.0566 198.892 68.9609 199.23 68.7695C199.567 68.5781 199.831 68.3161 200.023 67.9834C200.214 67.6507 200.31 67.2793 200.31 66.8691C200.31 66.4408 200.212 66.0579 200.016 65.7207C199.82 65.3835 199.546 65.1169 199.195 64.9209C198.845 64.7249 198.45 64.627 198.013 64.627C197.584 64.6178 197.215 64.6839 196.905 64.8252C196.596 64.9665 196.349 65.1966 196.167 65.5156H194.978L195.675 60.1016H201.034V61.1953H196.7L196.331 64.0938H196.427C196.655 63.9206 196.928 63.7816 197.247 63.6768C197.566 63.5719 197.894 63.5195 198.232 63.5195C198.851 63.5195 199.412 63.6608 199.913 63.9434C200.415 64.2259 200.806 64.6201 201.089 65.126C201.372 65.6318 201.513 66.2038 201.513 66.8418C201.513 67.4707 201.365 68.0358 201.068 68.5371C200.772 69.0384 200.364 69.4303 199.845 69.7129C199.325 69.9954 198.742 70.1367 198.095 70.1367ZM204.428 65.8574H204.66L207.873 62.5762H209.322L205.863 66.0898H205.754L204.441 67.3066L204.428 65.8574ZM203.347 60.1016H204.523V70H203.347V60.1016ZM205.193 66.3496L206.014 65.5293L209.555 70H208.064L205.193 66.3496ZM210.692 62.5762H211.827V63.7383H211.922C212.086 63.3372 212.339 63.0273 212.681 62.8086C213.023 62.5898 213.435 62.4805 213.918 62.4805C214.237 62.4805 214.525 62.5283 214.78 62.624C215.035 62.7197 215.256 62.861 215.443 63.0479C215.63 63.2347 215.782 63.4648 215.901 63.7383H215.983C216.111 63.474 216.281 63.2484 216.496 63.0615C216.71 62.8747 216.963 62.7311 217.254 62.6309C217.546 62.5306 217.865 62.4805 218.211 62.4805C218.667 62.4805 219.064 62.5739 219.401 62.7607C219.738 62.9476 220.002 63.2301 220.194 63.6084C220.385 63.9867 220.481 64.4629 220.481 65.0371V70H219.305V65.0508C219.305 64.5312 219.164 64.1484 218.881 63.9023C218.599 63.6562 218.239 63.5332 217.801 63.5332C217.464 63.5332 217.172 63.6038 216.926 63.7451C216.68 63.8864 216.493 64.0801 216.366 64.3262C216.238 64.5723 216.174 64.8548 216.174 65.1738V70H214.985V64.9277C214.985 64.6543 214.923 64.4105 214.8 64.1963C214.677 63.9821 214.506 63.818 214.288 63.7041C214.069 63.5902 213.818 63.5332 213.536 63.5332C213.244 63.5332 212.971 63.6107 212.715 63.7656C212.46 63.9206 212.255 64.137 212.1 64.415C211.945 64.693 211.868 65.0098 211.868 65.3652V70H210.692V62.5762ZM235.717 71.1074H234.65V58.9531H235.717V71.1074ZM235.129 64.7363H231.752V63.8477H235.129V64.7363ZM231.779 60.2793C231.779 61.4733 231.597 62.5898 231.232 63.6289C230.868 64.668 230.275 65.625 229.455 66.5C228.635 67.375 227.568 68.1406 226.256 68.7969L225.668 67.9355C226.835 67.3704 227.794 66.7096 228.546 65.9531C229.298 65.1966 229.849 64.3581 230.2 63.4375C230.551 62.5169 230.726 61.5189 230.726 60.4434V60.2793H231.779ZM231.287 61.1543H226.201V60.2793H231.287V61.1543ZM247.901 71.1348H246.835V58.9531H247.901V71.1348ZM239.588 67.2793C240.71 67.2793 241.744 67.2474 242.692 67.1836C243.64 67.1198 244.629 67.0059 245.659 66.8418L245.768 67.7441C244.72 67.9082 243.715 68.0221 242.753 68.0859C241.792 68.1497 240.737 68.1816 239.588 68.1816H238.577V67.2793H239.588ZM244.21 64.4082H239.67V67.6211H238.577V63.5332H243.129V60.9766H238.549V60.0879H244.21V64.4082ZM261.193 65.4473H250.064V64.5996H261.193V65.4473ZM259.798 69.002H252.497V70.4512H251.417V68.2637H258.732V67.2246H251.404V66.418H259.798V69.002ZM260.195 70.9434H251.417V70.1641H260.195V70.9434ZM259.757 61.8379H252.579V63.1777H251.513V61.0996H258.677V60.1016H251.472V59.3223H259.757V61.8379ZM259.976 63.6836H251.513V62.9043H259.976V63.6836ZM271.971 66.8418H270.919V64.9961H271.971V66.8418ZM276.989 65.2012H265.928V64.3672H276.989V65.2012ZM271.971 60.3613H270.919V58.8848H271.971V60.3613ZM271.807 60.6484C271.807 61.2591 271.584 61.79 271.137 62.2412C270.691 62.6924 270.094 63.0456 269.346 63.3008C268.599 63.556 267.76 63.7246 266.831 63.8066L266.516 62.9863C267.318 62.9316 268.05 62.804 268.711 62.6035C269.371 62.403 269.895 62.1341 270.283 61.7969C270.67 61.4596 270.864 61.0768 270.864 60.6484V60.4707H271.807V60.6484ZM272.04 60.6484C272.04 61.0768 272.233 61.4596 272.621 61.7969C273.008 62.1341 273.532 62.403 274.193 62.6035C274.854 62.804 275.585 62.9316 276.387 62.9863L276.059 63.8066C275.139 63.7246 274.305 63.556 273.557 63.3008C272.81 63.0456 272.213 62.6924 271.766 62.2412C271.32 61.79 271.096 61.2591 271.096 60.6484V60.4707H272.04V60.6484ZM275.868 60.8672H267.063V60.0195H275.868V60.8672ZM275.567 68.9609H268.348V70.4512H267.282V68.1953H274.514V67.1426H267.255V66.3359H275.567V68.9609ZM275.936 70.9707H267.282V70.1504H275.936V70.9707ZM282.747 67.9902H281.681V65.3789H282.747V67.9902ZM285.495 65.6934H279.124V64.8184H285.495V65.6934ZM285.441 60.9355H280.204V65.1465H279.124V60.0605H285.441V60.9355ZM285.181 63.2734H279.876V62.4258H285.181V63.2734ZM288.093 71.1348H287.027V58.9531H288.093V71.1348ZM278.195 67.7578C279.361 67.7487 280.323 67.7373 281.079 67.7236C281.836 67.71 282.677 67.6735 283.602 67.6143C284.527 67.555 285.4 67.4661 286.22 67.3477L286.302 68.1406C285.181 68.3411 284.028 68.4756 282.843 68.5439C281.658 68.6123 280.35 68.651 278.919 68.6602C278.728 68.6602 278.536 68.6602 278.345 68.6602L278.195 67.7578ZM299.58 60.5664H291.746V59.6914H299.58V60.5664ZM301.467 65.4473H290.338V64.5449H301.467V65.4473ZM300.004 60.6348C300.004 61.4004 299.981 62.1045 299.936 62.7471C299.89 63.3896 299.781 64.1165 299.607 64.9277L298.555 64.832C298.673 64.2669 298.76 63.7383 298.814 63.2461C298.869 62.7539 298.903 62.321 298.917 61.9473C298.931 61.5736 298.938 61.1361 298.938 60.6348V59.6914H300.004V60.6348ZM300.373 70.834H291.814V69.9316H300.373V70.834ZM292.881 70.0684H291.814V66.8145H292.881V70.0684ZM311.956 71.1074H310.889V58.9531H311.956V71.1074ZM313.993 64.8594H311.71V63.9707H313.993V64.8594ZM309.714 61.7969H302.481V60.9082H309.714V61.7969ZM306.159 62.8086C306.733 62.8086 307.246 62.9271 307.697 63.1641C308.148 63.401 308.501 63.7314 308.757 64.1553C309.012 64.5791 309.139 65.0599 309.139 65.5977C309.139 66.1354 309.012 66.6162 308.757 67.04C308.501 67.4639 308.148 67.7943 307.697 68.0312C307.246 68.2682 306.733 68.3867 306.159 68.3867C305.585 68.3867 305.072 68.2682 304.621 68.0312C304.17 67.7943 303.816 67.4639 303.561 67.04C303.306 66.6162 303.178 66.1354 303.178 65.5977C303.178 65.0599 303.306 64.5791 303.561 64.1553C303.816 63.7314 304.17 63.401 304.621 63.1641C305.072 62.9271 305.585 62.8086 306.159 62.8086ZM306.159 63.7109C305.785 63.7109 305.45 63.7907 305.154 63.9502C304.858 64.1097 304.625 64.333 304.457 64.6201C304.288 64.9072 304.204 65.2331 304.204 65.5977C304.204 65.9622 304.288 66.2858 304.457 66.5684C304.625 66.8509 304.858 67.0719 305.154 67.2314C305.45 67.391 305.785 67.4707 306.159 67.4707C306.533 67.4707 306.868 67.391 307.164 67.2314C307.46 67.0719 307.692 66.8509 307.861 66.5684C308.03 66.2858 308.114 65.9622 308.114 65.5977C308.114 65.2331 308.03 64.9072 307.861 64.6201C307.692 64.333 307.46 64.1097 307.164 63.9502C306.868 63.7907 306.533 63.7109 306.159 63.7109ZM306.678 61.3184H305.612V59.1035H306.678V61.3184ZM324.591 63.5059H316.265V62.6445H324.591V63.5059ZM325.876 66.0352H314.747V65.1602H325.876V66.0352ZM317.331 63.082H316.265V59.4043H317.331V63.082ZM324.66 70.8066H316.197V69.918H324.66V70.8066ZM317.263 70.1777H316.197V67.2793H317.263V70.1777ZM337.377 71.1074H336.338V58.9531H337.377V71.1074ZM334.328 64.5039H331.211V63.6016H334.328V64.5039ZM334.889 70.4785H333.863V59.2539H334.889V70.4785ZM328.217 67.2793C329.219 67.2793 330.044 67.2542 330.691 67.2041C331.339 67.154 331.995 67.056 332.66 66.9102L332.77 67.8262C332.104 67.9629 331.443 68.054 330.787 68.0996C330.131 68.1452 329.274 68.1725 328.217 68.1816H327.451V67.2793H328.217ZM332.031 61.3457H328.49V67.6211H327.451V60.457H332.031V61.3457ZM340.47 70.082C340.315 70.082 340.169 70.041 340.032 69.959C339.895 69.877 339.788 69.7676 339.711 69.6309C339.633 69.4941 339.595 69.3483 339.595 69.1934C339.595 69.0384 339.633 68.8926 339.711 68.7559C339.788 68.6191 339.895 68.512 340.032 68.4346C340.169 68.3571 340.315 68.3184 340.47 68.3184C340.624 68.3184 340.77 68.3571 340.907 68.4346C341.044 68.512 341.151 68.6191 341.228 68.7559C341.306 68.8926 341.345 69.0384 341.345 69.1934C341.345 69.3483 341.306 69.4941 341.228 69.6309C341.151 69.7676 341.044 69.877 340.907 69.959C340.77 70.041 340.624 70.082 340.47 70.082ZM344.136 70.082C343.981 70.082 343.835 70.041 343.699 69.959C343.562 69.877 343.455 69.7676 343.377 69.6309C343.3 69.4941 343.261 69.3483 343.261 69.1934C343.261 69.0384 343.3 68.8926 343.377 68.7559C343.455 68.6191 343.562 68.512 343.699 68.4346C343.835 68.3571 343.981 68.3184 344.136 68.3184C344.291 68.3184 344.437 68.3571 344.574 68.4346C344.71 68.512 344.818 68.6191 344.895 68.7559C344.972 68.8926 345.011 69.0384 345.011 69.1934C345.011 69.3483 344.972 69.4941 344.895 69.6309C344.818 69.7676 344.71 69.877 344.574 69.959C344.437 70.041 344.291 70.082 344.136 70.082ZM347.803 70.082C347.648 70.082 347.502 70.041 347.365 69.959C347.229 69.877 347.122 69.7676 347.044 69.6309C346.967 69.4941 346.928 69.3483 346.928 69.1934C346.928 69.0384 346.967 68.8926 347.044 68.7559C347.122 68.6191 347.229 68.512 347.365 68.4346C347.502 68.3571 347.648 68.3184 347.803 68.3184C347.958 68.3184 348.104 68.3571 348.24 68.4346C348.377 68.512 348.484 68.6191 348.562 68.7559C348.639 68.8926 348.678 69.0384 348.678 69.1934C348.678 69.3483 348.639 69.4941 348.562 69.6309C348.484 69.7676 348.377 69.877 348.24 69.959C348.104 70.041 347.958 70.082 347.803 70.082Z" fill="#4C41D6"/>
<line y1="76.5" x2="350" y2="76.5" stroke="#4C41D6"/>
<g clip-path="url(#clip0_489_4855)">
<path d="M305.309 45.5169C307.853 22.7261 297.538 2.86868 282.27 1.1641C267.002 -0.540482 252.562 16.5533 250.018 39.344C247.474 62.1348 257.789 81.9922 273.057 83.6968C288.325 85.4014 302.765 68.3076 305.309 45.5169Z" fill="#4C41D6" stroke="#4C41D6" stroke-linecap="round" stroke-linejoin="round"/>
<path d="M300.655 44.8841C303.199 22.0933 292.884 2.23588 277.616 0.531296C262.348 -1.17329 247.908 15.9204 245.364 38.7112C242.819 61.502 253.134 81.3594 268.402 83.064C283.671 84.7685 298.111 67.6748 300.655 44.8841Z" fill="#42FF55" stroke="#4C41D6" stroke-linecap="round" stroke-linejoin="round"/>
<path d="M296.474 44.4173C298.633 25.0791 289.877 8.2296 276.918 6.78281C263.959 5.33603 251.703 19.8399 249.545 39.178C247.386 58.5162 256.141 75.3657 269.1 76.8125C282.059 78.2593 294.315 63.7555 296.474 44.4173Z" fill="#42FF55" stroke="#4C41D6" stroke-linecap="round" stroke-linejoin="round"/>
<path opacity="0.49" d="M276.536 6.73324C260.881 28.6222 264.538 58.8519 268.803 76.7715C265.449 76.3368 262.341 74.8442 259.634 72.4905C253.369 67.0613 249.244 57.0558 249.211 45.0821C249.178 29.0897 256.444 14.59 266.416 9.04598C268.483 7.89781 270.656 7.1433 272.912 6.82345C274.134 6.65943 275.355 6.62662 276.528 6.72504L276.536 6.73324Z" fill="white"/>
<path opacity="0.49" d="M266.425 9.0459C253.861 29.106 256.001 55.1203 259.634 72.4904C253.369 67.0612 249.244 57.0557 249.211 45.082C249.178 29.0896 256.444 14.5899 266.416 9.0459H266.425Z" fill="white"/>
<path d="M296.474 44.4173C298.633 25.0791 289.877 8.2296 276.918 6.78281C263.959 5.33603 251.703 19.8399 249.545 39.178C247.386 58.5162 256.141 75.3657 269.1 76.8125C282.059 78.2593 294.315 63.7555 296.474 44.4173Z" stroke="#4C41D6" stroke-linecap="round" stroke-linejoin="round"/>
<path d="M251.278 45.1066C251.228 25.8009 261.84 8.66861 274.978 6.84794C275.396 6.79054 275.823 6.74953 276.233 6.72493C275.15 6.65112 274.043 6.68392 272.912 6.83974C259.774 8.66041 249.17 25.7927 249.211 45.0984C249.26 63.7889 259.274 77.6653 271.821 76.8862C260.249 76.1153 251.31 62.7637 251.269 45.1066H251.278Z" fill="#4C41D6" stroke="#4C41D6" stroke-linecap="round" stroke-linejoin="round"/>
<path d="M183.539 94.7895H183.096C181.201 94.7895 179.865 92.936 180.447 91.1317C181.004 89.4095 181.948 87.679 183.539 87.4084C186.819 86.8589 195.84 89.5981 195.84 91.509C195.84 93.4199 195.84 94.24 194.749 94.24H187.918L182.448 100.251L182.333 100.153C181.111 99.1525 181.144 97.3318 182.333 96.2903C182.784 95.8966 183.21 95.3964 183.547 94.7813L183.539 94.7895Z" fill="#4C41D6" stroke="#4C41D6" stroke-linecap="round" stroke-linejoin="round"/>
<path d="M245.316 145.637H336.075C336.075 145.637 349.196 136.886 346.466 113.923C343.735 90.9595 328.973 106.271 323.503 121.575H283.048C283.048 121.575 274.298 104.081 260.086 106.263C245.874 108.453 245.324 145.629 245.324 145.629L245.316 145.637Z" fill="#4C41D6" stroke="#4C41D6" stroke-linecap="round" stroke-linejoin="round"/>
<path d="M267.614 141.094C267.614 134.352 265.679 128.275 262.595 123.994V117.597H251.655C242.839 117.597 235.688 128.119 235.688 141.094C235.688 154.068 242.839 164.59 251.655 164.59H262.595V158.193C265.687 153.904 267.614 147.835 267.614 141.094Z" fill="#4C41D6" stroke="#4C41D6" stroke-linecap="round" stroke-linejoin="round"/>
<path d="M262.595 164.59C271.413 164.59 278.562 154.07 278.562 141.094C278.562 128.117 271.413 117.597 262.595 117.597C253.777 117.597 246.628 128.117 246.628 141.094C246.628 154.07 253.777 164.59 262.595 164.59Z" fill="#4C41D6"/>
<mask id="mask0_489_4855" style="mask-type:luminance" maskUnits="userSpaceOnUse" x="246" y="117" width="33" height="48">
<path d="M262.595 164.59C271.413 164.59 278.562 154.07 278.562 141.094C278.562 128.117 271.413 117.597 262.595 117.597C253.777 117.597 246.628 128.117 246.628 141.094C246.628 154.07 253.777 164.59 262.595 164.59Z" fill="white"/>
</mask>
<g mask="url(#mask0_489_4855)">
<path opacity="0.2" d="M262.595 164.59C271.413 164.59 278.562 154.07 278.562 141.094C278.562 128.117 271.413 117.597 262.595 117.597C253.777 117.597 246.628 128.117 246.628 141.094C246.628 154.07 253.777 164.59 262.595 164.59Z" fill="white"/>
</g>
<path d="M262.595 164.59C271.413 164.59 278.562 154.07 278.562 141.094C278.562 128.117 271.413 117.597 262.595 117.597C253.777 117.597 246.628 128.117 246.628 141.094C246.628 154.07 253.777 164.59 262.595 164.59Z" stroke="#4C41D6" stroke-linecap="round" stroke-linejoin="round"/>
<path d="M168.99 117.589H158.649C150.317 117.589 143.559 128.111 143.559 141.085C143.559 154.06 150.317 164.582 158.649 164.582H168.99C177.322 164.582 184.08 154.06 184.08 141.085C184.08 128.111 177.322 117.589 168.99 117.589Z" fill="#4C41D6" stroke="#4C41D6" stroke-linecap="round" stroke-linejoin="round"/>
<path d="M262.595 159.841C269.629 159.841 275.331 151.448 275.331 141.093C275.331 130.739 269.629 122.345 262.595 122.345C255.561 122.345 249.859 130.739 249.859 141.093C249.859 151.448 255.561 159.841 262.595 159.841Z" fill="white" stroke="#4C41D6" stroke-linecap="round" stroke-linejoin="round"/>
<path d="M342.381 141.094C342.381 134.352 341.151 128.275 339.183 123.994V117.597H329.522C323.913 117.597 319.361 128.119 319.361 141.094C319.361 154.068 323.913 164.59 329.522 164.59H339.183V158.193C341.151 153.904 342.381 147.835 342.381 141.094Z" fill="#4C41D6" stroke="#4C41D6" stroke-linecap="round" stroke-linejoin="round"/>
<path d="M339.183 164.59C344.795 164.59 349.344 154.07 349.344 141.094C349.344 128.117 344.795 117.597 339.183 117.597C333.571 117.597 329.022 128.117 329.022 141.094C329.022 154.07 333.571 164.59 339.183 164.59Z" fill="#4C41D6"/>
<mask id="mask1_489_4855" style="mask-type:luminance" maskUnits="userSpaceOnUse" x="329" y="117" width="21" height="48">
<path d="M339.183 164.59C344.795 164.59 349.344 154.07 349.344 141.094C349.344 128.117 344.795 117.597 339.183 117.597C333.571 117.597 329.022 128.117 329.022 141.094C329.022 154.07 333.571 164.59 339.183 164.59Z" fill="white"/>
</mask>
<g mask="url(#mask1_489_4855)">
<path opacity="0.2" d="M339.183 164.59C344.795 164.59 349.344 154.07 349.344 141.094C349.344 128.117 344.795 117.597 339.183 117.597C333.571 117.597 329.022 128.117 329.022 141.094C329.022 154.07 333.571 164.59 339.183 164.59Z" fill="white"/>
</g>
<path d="M339.183 164.59C344.795 164.59 349.344 154.07 349.344 141.094C349.344 128.117 344.795 117.597 339.183 117.597C333.571 117.597 329.022 128.117 329.022 141.094C329.022 154.07 333.571 164.59 339.183 164.59Z" stroke="#4C41D6" stroke-linecap="round" stroke-linejoin="round"/>
<path d="M339.183 159.841C343.658 159.841 347.286 151.448 347.286 141.093C347.286 130.739 343.658 122.345 339.183 122.345C334.708 122.345 331.081 130.739 331.081 141.093C331.081 151.448 334.708 159.841 339.183 159.841Z" fill="white" stroke="#4C41D6" stroke-linecap="round" stroke-linejoin="round"/>
<path d="M249.138 146.834C249.138 128.111 255.641 112.931 263.669 112.931C271.698 112.931 278.201 128.111 278.201 146.834C278.201 147.859 278.177 148.876 278.144 149.885H329.908C329.883 148.876 329.867 147.868 329.867 146.834C329.867 128.111 334.607 112.931 340.454 112.931C344.358 112.931 347.77 119.713 349.607 129.792V102.138C349.607 99.538 347.753 97.3073 345.194 96.8316C345.112 96.8152 345.03 96.7988 344.94 96.7824C341.356 96.0607 334.894 89.2455 324.848 80.6342C314.802 72.023 305.83 71.3094 305.83 71.3094H215.194C213.48 71.3094 211.815 71.8753 210.462 72.9251L179.545 96.7824C179.545 96.7824 151.924 102.162 145.823 108.264C139.721 114.366 140.435 149.877 140.435 149.877H249.203C249.162 148.868 249.146 147.859 249.146 146.826L249.138 146.834Z" fill="white"/>
<mask id="mask2_489_4855" style="mask-type:luminance" maskUnits="userSpaceOnUse" x="140" y="71" width="210" height="79">
<path d="M249.138 146.834C249.138 128.111 255.641 112.931 263.669 112.931C271.698 112.931 278.201 128.111 278.201 146.834C278.201 147.859 278.177 148.876 278.144 149.885H329.908C329.883 148.876 329.867 147.868 329.867 146.834C329.867 128.111 334.607 112.931 340.454 112.931C344.358 112.931 347.77 119.713 349.607 129.792V102.138C349.607 99.538 347.753 97.3073 345.194 96.8316C345.112 96.8152 345.03 96.7988 344.94 96.7824C341.356 96.0607 334.894 89.2455 324.848 80.6342C314.802 72.023 305.83 71.3094 305.83 71.3094H215.194C213.48 71.3094 211.815 71.8753 210.462 72.9251L179.545 96.7824C179.545 96.7824 151.924 102.162 145.823 108.264C139.721 114.366 140.435 149.877 140.435 149.877H249.203C249.162 148.868 249.146 147.859 249.146 146.826L249.138 146.834Z" fill="white"/>
</mask>
<g mask="url(#mask2_489_4855)">
<path opacity="0.3" d="M267.081 96.7824L271.878 71.3094H215.186C213.472 71.3094 211.807 71.8753 210.454 72.9251L179.536 96.7824C179.536 96.7824 151.916 102.162 145.814 108.264C139.713 114.366 140.435 149.877 140.435 149.877H237.484C238.181 130.703 242.577 121.575 242.577 121.575H215.784C236.557 99.1607 267.073 96.7742 267.073 96.7742L267.081 96.7824Z" fill="#4C41D6"/>
</g>
<path d="M249.138 146.834C249.138 128.111 255.641 112.931 263.669 112.931C271.698 112.931 278.201 128.111 278.201 146.834C278.201 147.859 278.177 148.876 278.144 149.885H329.908C329.883 148.876 329.867 147.868 329.867 146.834C329.867 128.111 334.607 112.931 340.454 112.931C344.358 112.931 347.77 119.713 349.607 129.792V102.138C349.607 99.538 347.753 97.3073 345.194 96.8316C345.112 96.8152 345.03 96.7988 344.94 96.7824C341.356 96.0607 334.894 89.2455 324.848 80.6342C314.802 72.023 305.83 71.3094 305.83 71.3094H215.194C213.48 71.3094 211.815 71.8753 210.462 72.9251L179.545 96.7824C179.545 96.7824 151.924 102.162 145.823 108.264C139.721 114.366 140.435 149.877 140.435 149.877H249.203C249.162 148.868 249.146 147.859 249.146 146.826L249.138 146.834Z" stroke="#4C41D6" stroke-linecap="round" stroke-linejoin="round"/>
<path d="M283.581 71.3094H215.186C213.472 71.3094 211.807 71.8753 210.454 72.9251L179.537 96.7824H267.073L283.573 71.3094H283.581Z" fill="white" stroke="#4C41D6" stroke-linecap="round" stroke-linejoin="round"/>
<path d="M247.759 106.378C242.839 106.435 234.22 106.763 230.488 108.264C225.109 110.413 221.517 112.57 221.517 112.57H239.099L247.759 106.378Z" fill="#4C41D6" stroke="#4C41D6" stroke-linecap="round" stroke-linejoin="round"/>
<path d="M240.174 117.95V114.719H221.517L224.895 117.835C224.838 117.868 224.789 117.909 224.748 117.942H240.174V117.95Z" fill="#4C41D6" stroke="#4C41D6" stroke-linecap="round" stroke-linejoin="round"/>
<path d="M241.961 113.283V117.974C243.126 117.835 244.594 117.326 245.545 115.793C247.341 112.922 251.376 106.37 251.376 106.37L241.953 113.275L241.961 113.283Z" fill="#4C41D6" stroke="#4C41D6" stroke-linecap="round" stroke-linejoin="round"/>
<path d="M147.553 117.843L150.932 114.727H142.969C142.723 115.735 142.493 116.818 142.288 117.958H147.701C147.701 117.958 147.61 117.884 147.553 117.851V117.843Z" fill="#4C41D6" stroke="#4C41D6" stroke-linecap="round" stroke-linejoin="round"/>
<path d="M144.888 109.502C144.396 110.331 143.961 111.364 143.576 112.57H150.932C150.932 112.57 148.603 111.175 144.888 109.502Z" fill="#4C41D6" stroke="#4C41D6" stroke-linecap="round" stroke-linejoin="round"/>
<path d="M267.081 96.7823H320.173C320.173 96.7823 327.71 94.2728 325.553 84.9398C324.823 81.7741 309.767 74.5325 307.618 74.5325H281.785L267.073 96.7741L267.081 96.7823Z" fill="#4C41D6"/>
<mask id="mask3_489_4855" style="mask-type:luminance" maskUnits="userSpaceOnUse" x="267" y="74" width="59" height="23">
<path d="M267.081 96.7823H320.173C320.173 96.7823 327.71 94.2728 325.553 84.9398C324.823 81.7741 309.767 74.5325 307.618 74.5325H281.785L267.073 96.7741L267.081 96.7823Z" fill="white"/>
</mask>
<g mask="url(#mask3_489_4855)">
<path opacity="0.2" d="M267.081 96.7823H320.173C320.173 96.7823 327.71 94.2728 325.553 84.9398C324.823 81.7741 309.767 74.5325 307.618 74.5325H281.785L267.073 96.7741L267.081 96.7823Z" fill="white" stroke="#4C41D6" stroke-linecap="round" stroke-linejoin="round"/>
</g>
<path d="M267.081 96.7823H320.173C320.173 96.7823 327.71 94.2728 325.553 84.9398C324.823 81.7741 309.767 74.5325 307.618 74.5325H281.785L267.073 96.7741L267.081 96.7823Z" stroke="#4C41D6" stroke-linecap="round" stroke-linejoin="round"/>
<path d="M208.362 74.5408L179.544 96.7824H267.081L281.49 74.5408H208.362Z" fill="#4C41D6" stroke="#4C41D6" stroke-linecap="round" stroke-linejoin="round"/>
<path d="M152.277 113.283V120.82L157.657 124.765H201.064L211.11 120.459V113.283H152.277Z" fill="#4C41D6" stroke="#4C41D6" stroke-linecap="round" stroke-linejoin="round"/>
<path d="M231.924 134.098H142.592L141.394 124.527C140.845 129.784 140.599 135.394 140.492 139.994L140.804 141.274L142.6 137.69H150.259L145.47 141.635H216.506L213.972 137.69H231.932L236.951 140.56H240.535V122.263L231.924 134.106V134.098Z" fill="#4C41D6" stroke="#4C41D6" stroke-linecap="round" stroke-linejoin="round"/>
<path d="M285.77 94.7895H285.328C283.425 94.7895 282.096 92.936 282.679 91.1317C283.236 89.4095 284.18 87.679 285.77 87.4084C289.051 86.8589 298.072 89.5981 298.072 91.509C298.072 93.4199 298.072 94.24 296.981 94.24H290.15L284.68 100.251L284.565 100.153C283.343 99.1525 283.376 97.3318 284.565 96.2903C285.016 95.8966 285.442 95.3964 285.779 94.7813L285.77 94.7895Z" fill="white"/>
<path d="M302.074 96.7824H305.067C304.747 92.3866 303.493 82.6846 298.564 74.5408H295.562C297.293 78.2887 301.402 87.9579 302.074 96.7824Z" fill="#4C41D6" stroke="#4C41D6" stroke-linecap="round" stroke-linejoin="round"/>
<path d="M237.385 80.5768L238.476 83.5866C238.476 83.5866 236.287 85.4975 236.287 88.5073V96.7823H229.554L235.188 80.5768H237.377H237.385ZM205.951 84.6774C201.334 87.4904 194.364 93.6905 190.985 96.7823H213.463L225.092 78.9365L217.441 79.486C217.441 79.486 212.25 80.8556 205.96 84.6774H205.951ZM252.426 82.4876L249.695 81.9382H245.865L244.774 83.0289C244.774 83.0289 247.505 83.2996 247.784 84.9398C248.055 86.58 248.055 89.8605 248.055 89.8605H249.966C249.966 89.8605 249.966 86.8507 251.335 85.4893C252.705 84.1279 253.795 83.2996 253.795 83.2996L252.426 82.4794V82.4876Z" fill="white" stroke="#4C41D6" stroke-linecap="round" stroke-linejoin="round"/>
<path d="M284.565 100.161L284.68 100.26L290.15 94.2482H296.981C297.883 94.2482 298.039 93.6741 298.064 92.403H282.581C282.769 93.7151 283.885 94.7977 285.328 94.7977H285.771C285.426 95.4128 285 95.9049 284.557 96.3067C283.376 97.3483 283.343 99.1689 284.557 100.169L284.565 100.161Z" fill="#4C41D6" stroke="#4C41D6" stroke-linecap="round" stroke-linejoin="round"/>
<path d="M301.434 103.384H295.284V104.705H301.434V103.384Z" fill="#4C41D6"/>
<path d="M329.129 103.384H322.978V104.705H329.129V103.384Z" fill="#4C41D6"/>
<path d="M329.571 98.111C329.571 98.111 334.025 101.129 336.608 111.733C336.608 111.733 325.619 113.054 325.619 143.382" stroke="#4C41D6" stroke-linecap="round" stroke-linejoin="round"/>
<path d="M324.29 144.702H278.169C278.185 145.407 278.201 146.113 278.201 146.826C278.201 147.851 278.177 148.868 278.144 149.877H329.908C329.883 148.868 329.867 147.86 329.867 146.826C329.867 146.752 329.867 146.687 329.867 146.613L324.299 144.702H324.29Z" fill="#4C41D6" stroke="#4C41D6" stroke-linecap="round" stroke-linejoin="round"/>
<path d="M249.137 146.834C249.137 146.121 249.154 145.416 249.17 144.71H140.418C140.402 147.868 140.435 149.885 140.435 149.885H249.203C249.162 148.876 249.145 147.868 249.145 146.834H249.137Z" fill="#4C41D6" stroke="#4C41D6" stroke-linecap="round" stroke-linejoin="round"/>
<path d="M347.663 100.752C345.924 100.752 344.514 102.162 344.514 103.901C344.514 104.426 344.645 104.951 344.899 105.41L349.598 114.021V102.138C349.598 101.654 349.516 101.195 349.393 100.752H349.352H347.671H347.663Z" fill="#4C41D6" stroke="#4C41D6" stroke-linecap="round" stroke-linejoin="round"/>
<path d="M305.453 101.35C305.453 101.35 315.294 115.563 305.453 139.625" stroke="#4C41D6" stroke-linecap="round" stroke-linejoin="round"/>
</g>
<path d="M270.415 52.4808V40.5734C271.34 40.3284 272.265 39.9492 273.199 39.4198C274.124 38.8904 274.952 38.2188 275.674 37.4049C276.397 36.5911 276.989 35.6034 277.452 34.4498C277.914 33.2962 278.15 31.9688 278.15 30.4754C278.15 29.4087 278.004 28.4763 277.72 27.6783C277.436 26.8803 277.062 26.2402 276.6 25.7583C276.137 25.2763 275.601 24.9365 274.993 24.739C274.384 24.5414 273.767 24.494 273.126 24.581C272.412 24.6837 271.754 24.976 271.145 25.458C270.537 25.94 269.993 26.5405 269.506 27.2753C269.019 28.0023 268.605 28.824 268.256 29.7248C267.907 30.6255 267.647 31.5737 267.452 32.5614L262.997 30.3806C263.354 28.4052 263.873 26.6827 264.563 25.2131C265.253 23.7434 266.056 22.5029 266.99 21.4915C267.915 20.488 268.938 19.69 270.058 19.0974C271.178 18.5048 272.338 18.1255 273.548 17.9517C275.066 17.7304 276.453 17.8411 277.72 18.2835C278.978 18.726 280.057 19.4292 280.942 20.4011C281.835 21.373 282.524 22.5977 283.028 24.0753C283.523 25.5528 283.774 27.1963 283.774 29.0136C283.774 30.831 283.563 32.5139 283.133 34.0705C282.703 35.6271 282.135 37.0256 281.421 38.2741C280.706 39.5146 279.879 40.605 278.945 41.5452C278.004 42.4855 277.03 43.2361 276.007 43.8129V51.6669L270.415 52.4808ZM270.415 57.0241L276.007 56.2102V64.0089L270.415 64.8227V57.0241Z" fill="#4C41D6" stroke="#4C41D6" stroke-width="3" stroke-linecap="round" stroke-linejoin="round"/>
<path d="M268.881 51.0979V39.1906C269.806 38.9456 270.731 38.5663 271.665 38.0369C272.59 37.5076 273.418 36.8359 274.14 36.0221C274.862 35.2083 275.455 34.2206 275.918 33.067C276.38 31.9134 276.616 30.5859 276.616 29.0926C276.616 28.0259 276.47 27.0935 276.185 26.2955C275.901 25.4974 275.528 24.8574 275.065 24.3754C274.603 23.8935 274.067 23.5537 273.458 23.3562C272.85 23.1586 272.233 23.1112 271.592 23.1981C270.877 23.3009 270.22 23.5932 269.611 24.0752C269.002 24.5572 268.459 25.1577 267.972 25.8925C267.485 26.6194 267.071 27.4412 266.722 28.3419C266.373 29.2427 266.113 30.1909 265.918 31.1785L261.462 28.9978C261.82 27.0224 262.339 25.2999 263.029 23.8302C263.719 22.3606 264.522 21.1201 265.456 20.1087C266.381 19.1052 267.404 18.3072 268.524 17.7146C269.644 17.122 270.804 16.7427 272.014 16.5689C273.531 16.3476 274.919 16.4583 276.185 16.9007C277.443 17.3432 278.523 18.0464 279.408 19.0183C280.3 19.9902 280.99 21.2149 281.494 22.6924C281.989 24.17 282.24 25.8135 282.24 27.6308C282.24 29.4481 282.029 31.1311 281.599 32.6877C281.169 34.2443 280.601 35.6428 279.886 36.8912C279.172 38.1318 278.344 39.2222 277.411 40.1624C276.47 41.1027 275.496 41.8533 274.473 42.4301V50.2841L268.881 51.0979ZM268.881 55.6412L274.473 54.8274V62.6261L268.881 63.4399V55.6412Z" fill="white" stroke="#4C41D6" stroke-width="1.16" stroke-linecap="round" stroke-linejoin="round"/>
<defs>
<clipPath id="clip0_489_4855">
<rect width="210" height="165" fill="white" transform="translate(140)"/>
</clipPath>
</defs>
</svg>
