<svg width="240" height="153" viewBox="0 0 240 153" fill="none" xmlns="http://www.w3.org/2000/svg">
<path d="M7.78906 112.902C7.78906 114.402 7.60156 115.767 7.22656 116.996C6.85677 118.225 6.20312 119.368 5.26562 120.426C4.33333 121.483 3.04688 122.42 1.40625 123.238L0.585938 122.105C2.02865 121.402 3.17188 120.6 4.01562 119.699C4.86458 118.793 5.46615 117.803 5.82031 116.73C6.17448 115.657 6.35156 114.441 6.35156 113.082V112.902H7.78906ZM7.22656 114.113H1.39844V112.902H7.22656V114.113ZM0.898438 118.012L0.679688 116.73L6.21875 116.371V117.512L0.898438 118.012ZM11.4219 125.473H9.94531V111.48H11.4219V125.473ZM13.5938 118.308H11.0391V117.074H13.5938V118.308ZM26.0421 112.973H15.6436V111.848H26.0421V112.973ZM25.9796 116.496H15.7061V115.348H25.9796V116.496ZM19.1593 116.152H17.6827V112.262H19.1593V116.152ZM24.003 116.152H22.5186V112.262H24.003V116.152ZM27.2374 118.691H14.4718V117.496H27.2374V118.691ZM21.5733 120.308H20.0968V118.215H21.5733V120.308ZM25.6202 123.09H17.4796V124.668H16.0186V122.043H24.1671V120.996H15.9952V119.902H25.6202V123.09ZM26.0264 125.348H16.0186V124.23H26.0264V125.348ZM43.4621 118.957H41.9856V111.48H43.4621V118.957ZM45.5012 115.918H43.0481V114.683H45.5012V115.918ZM34.1965 117.308C35.7642 117.308 36.9986 117.28 37.8996 117.223C38.8007 117.16 39.6913 117.038 40.5715 116.855L40.7512 118.058C39.8293 118.246 38.897 118.374 37.9543 118.441C37.0168 118.504 35.7642 118.535 34.1965 118.535H33.0793V117.308H34.1965ZM39.3059 113.59H34.5559V118.137H33.0793V112.387H39.3059V113.59ZM35.9621 121.285H41.9856V119.683H43.4621V125.269H34.4856V119.683H35.9621V121.285ZM41.9856 124.058V122.457H35.9621V124.058H41.9856ZM47.7698 120.941C48.6396 120.941 49.4521 120.915 50.2073 120.863C50.9625 120.811 51.7594 120.715 52.5979 120.574L52.7151 121.793C51.8662 121.933 51.0615 122.03 50.3011 122.082C49.5459 122.134 48.7021 122.165 47.7698 122.176H46.8636V120.941H47.7698ZM51.6917 117.988H48.2933V121.324H46.8636V116.808H50.2542V114.168H46.8401V112.973H51.6917V117.988ZM58.4339 125.48H57.0276V111.48H58.4339V125.48ZM54.8558 116.277H52.4339V115.082H54.8558V116.277ZM55.5979 124.777H54.1839V111.746H55.5979V124.777ZM54.8558 119.762H52.4339V118.558H54.8558V119.762ZM68.6556 118.058H66.0775V116.848H68.6556V118.058ZM72.4212 125.48H70.9916V111.48H72.4212V125.48ZM69.5697 124.793H68.1634V111.746H69.5697V124.793ZM63.5541 112.598C64.1634 112.598 64.6973 112.798 65.1556 113.199C65.614 113.595 65.9681 114.165 66.2181 114.91C66.4733 115.655 66.6009 116.53 66.6009 117.535C66.6009 118.53 66.4733 119.4 66.2181 120.144C65.9681 120.889 65.614 121.465 65.1556 121.871C64.6973 122.272 64.1634 122.475 63.5541 122.48C62.9499 122.475 62.4186 122.272 61.9603 121.871C61.502 121.465 61.1478 120.889 60.8978 120.144C60.653 119.4 60.5306 118.53 60.5306 117.535C60.5306 116.53 60.653 115.655 60.8978 114.91C61.1478 114.165 61.502 113.595 61.9603 113.199C62.4186 112.798 62.9499 112.598 63.5541 112.598ZM63.5541 114.004C63.2103 113.999 62.916 114.137 62.6712 114.418C62.4265 114.699 62.239 115.105 62.1087 115.637C61.9785 116.163 61.9134 116.795 61.9134 117.535C61.9134 118.264 61.9785 118.894 62.1087 119.426C62.239 119.957 62.4291 120.363 62.6791 120.644C62.9291 120.92 63.2207 121.058 63.5541 121.058C63.8926 121.058 64.1869 120.92 64.4369 120.644C64.6869 120.363 64.8796 119.957 65.015 119.426C65.1504 118.894 65.2181 118.264 65.2181 117.535C65.2181 116.795 65.1504 116.163 65.015 115.637C64.8796 115.105 64.6869 114.699 64.4369 114.418C64.1869 114.137 63.8926 113.999 63.5541 114.004ZM90.3804 125.48H88.9741V111.48H90.3804V125.48ZM89.3335 118.254H86.7163V117.043H89.3335V118.254ZM87.146 124.777H85.7866V111.769H87.146V124.777ZM79.771 120.863C80.87 120.863 81.7944 120.84 82.5444 120.793C83.2944 120.741 84.0575 120.639 84.8335 120.488L84.9507 121.715C84.159 121.871 83.3778 121.978 82.6069 122.035C81.8413 122.087 80.896 122.116 79.771 122.121H78.8413V120.863H79.771ZM84.0835 114.379H80.3179V121.457H78.8413V113.168H84.0835V114.379ZM103.321 121.973H101.844V111.496H103.321V121.973ZM105.36 117.23H102.868V116.004H105.36V117.23ZM100.672 114.316H92.3365V113.129H100.672V114.316ZM96.5084 114.996C97.175 114.996 97.7636 115.105 98.274 115.324C98.7896 115.543 99.1907 115.853 99.4771 116.254C99.7636 116.655 99.9068 117.118 99.9068 117.644C99.9068 118.165 99.7636 118.624 99.4771 119.019C99.1907 119.41 98.7896 119.715 98.274 119.933C97.7636 120.152 97.175 120.262 96.5084 120.262C95.8417 120.262 95.248 120.152 94.7271 119.933C94.2115 119.715 93.8105 119.41 93.524 119.019C93.2428 118.624 93.1021 118.165 93.1021 117.644C93.1021 117.118 93.2428 116.655 93.524 116.254C93.8105 115.853 94.2115 115.543 94.7271 115.324C95.248 115.105 95.8417 114.996 96.5084 114.996ZM96.5084 116.152C96.1178 116.152 95.7714 116.212 95.4693 116.332C95.1672 116.446 94.9355 116.618 94.774 116.848C94.6125 117.077 94.5318 117.342 94.5318 117.644C94.5318 117.946 94.6125 118.207 94.774 118.426C94.9355 118.644 95.1672 118.814 95.4693 118.933C95.7714 119.048 96.1178 119.105 96.5084 119.105C96.899 119.105 97.2454 119.048 97.5474 118.933C97.8547 118.814 98.0917 118.644 98.2584 118.426C98.425 118.207 98.5084 117.946 98.5084 117.644C98.5084 117.342 98.425 117.077 98.2584 116.848C98.0917 116.618 97.8547 116.446 97.5474 116.332C97.2454 116.212 96.899 116.152 96.5084 116.152ZM97.2506 113.73H95.774V111.488H97.2506V113.73ZM103.915 125.207H94.4537V123.98H103.915V125.207ZM95.9224 124.488H94.4537V121.152H95.9224V124.488ZM117.163 113.473C117.163 114.452 116.9 115.371 116.374 116.23C115.853 117.085 115.158 117.808 114.288 118.402C113.418 118.996 112.467 119.407 111.436 119.637L110.772 118.394C111.663 118.217 112.499 117.884 113.28 117.394C114.061 116.905 114.686 116.314 115.155 115.621C115.624 114.928 115.858 114.212 115.858 113.473V112.426H117.163V113.473ZM117.421 113.473C117.421 114.207 117.658 114.923 118.132 115.621C118.606 116.319 119.236 116.915 120.022 117.41C120.809 117.9 121.645 118.228 122.53 118.394L121.866 119.637C120.845 119.407 119.9 118.999 119.03 118.41C118.16 117.821 117.462 117.098 116.936 116.238C116.41 115.379 116.147 114.457 116.147 113.473V112.426H117.421V113.473ZM123.124 123.644H110.311V122.418H123.124V123.644ZM135.635 120.137H125.869V118.941H135.635V120.137ZM137.08 123.723H124.267V122.504H137.08V123.723ZM135.494 113.863H127.385V119.285H125.869V112.629H135.494V113.863ZM135.181 116.91H126.924V115.738H135.181V116.91ZM139.622 120.855C140.638 120.855 141.536 120.832 142.317 120.785C143.104 120.733 143.932 120.629 144.802 120.473L144.919 121.691C144.044 121.848 143.216 121.952 142.434 122.004C141.658 122.051 140.721 122.079 139.622 122.09H138.669V120.855H139.622ZM143.645 117.98H140.098V121.363H138.669V116.777H142.231V114.191H138.645V112.988H143.645V117.98ZM150.239 125.48H148.833V111.48H150.239V125.48ZM146.591 117.644H144.294V116.441H146.591V117.644ZM147.364 124.762H145.966V111.801H147.364V124.762ZM159.031 113.473C159.031 114.452 158.768 115.371 158.242 116.23C157.721 117.085 157.026 117.808 156.156 118.402C155.286 118.996 154.336 119.407 153.305 119.637L152.641 118.394C153.531 118.217 154.367 117.884 155.148 117.394C155.93 116.905 156.555 116.314 157.023 115.621C157.492 114.928 157.727 114.212 157.727 113.473V112.426H159.031V113.473ZM159.289 113.473C159.289 114.207 159.526 114.923 160 115.621C160.474 116.319 161.104 116.915 161.891 117.41C162.677 117.9 163.513 118.228 164.398 118.394L163.734 119.637C162.713 119.407 161.768 118.999 160.898 118.41C160.029 117.821 159.331 117.098 158.805 116.238C158.279 115.379 158.016 114.457 158.016 113.473V112.426H159.289V113.473ZM164.992 123.644H152.18V122.418H164.992V123.644ZM178.933 119.051H166.12V117.91H178.933V119.051ZM177.355 123.113H169.136V124.629H167.651V122.129H175.886V121.098H167.636V120.019H177.355V123.113ZM177.792 125.316H167.651V124.269H177.792V125.316ZM177.315 114.879H169.237V116.293H167.769V113.894H175.831V112.894H167.73V111.848H177.315V114.879ZM177.565 116.988H167.769V115.949H177.565V116.988ZM191.228 120.183H189.775V118.09H191.228V120.183ZM196.892 118.433H184.126V117.246H196.892V118.433ZM195.275 122.996H187.134V124.512H185.673V121.926H193.821V120.793H185.65V119.676H195.275V122.996ZM195.681 125.348H185.673V124.199H195.681V125.348ZM190.939 112.777C190.939 113.475 190.689 114.098 190.189 114.644C189.694 115.191 189.017 115.639 188.157 115.988C187.303 116.332 186.337 116.553 185.259 116.652L184.775 115.527C185.696 115.46 186.527 115.295 187.267 115.035C188.006 114.769 188.587 114.441 189.009 114.051C189.436 113.655 189.65 113.23 189.65 112.777V112.394H190.939V112.777ZM191.368 112.777C191.368 113.23 191.579 113.655 192.001 114.051C192.423 114.441 193.009 114.769 193.759 115.035C194.509 115.295 195.34 115.46 196.251 115.527L195.775 116.652C194.696 116.553 193.725 116.332 192.861 115.988C192.001 115.644 191.321 115.196 190.821 114.644C190.327 114.092 190.079 113.47 190.079 112.777V112.394H191.368V112.777ZM195.751 113.105H185.29V111.949H195.751V113.105ZM208.598 115.754H204.426V114.527H208.598V115.754ZM208.598 120.144H204.426V118.933H208.598V120.144ZM201.879 112.535C202.567 112.535 203.176 112.738 203.707 113.144C204.244 113.551 204.663 114.124 204.965 114.863C205.267 115.603 205.418 116.465 205.418 117.449C205.418 118.439 205.267 119.303 204.965 120.043C204.663 120.782 204.244 121.355 203.707 121.762C203.176 122.163 202.567 122.363 201.879 122.363C201.192 122.363 200.577 122.163 200.035 121.762C199.499 121.361 199.08 120.79 198.778 120.051C198.475 119.306 198.324 118.439 198.324 117.449C198.324 116.465 198.475 115.603 198.778 114.863C199.08 114.124 199.499 113.551 200.035 113.144C200.577 112.738 201.192 112.535 201.879 112.535ZM201.879 113.863C201.462 113.863 201.09 114.009 200.762 114.301C200.434 114.592 200.181 115.009 200.004 115.551C199.832 116.087 199.746 116.72 199.746 117.449C199.746 118.173 199.832 118.806 200.004 119.348C200.181 119.889 200.434 120.306 200.762 120.598C201.09 120.884 201.462 121.027 201.879 121.027C202.296 121.027 202.668 120.884 202.996 120.598C203.324 120.306 203.577 119.889 203.754 119.348C203.931 118.806 204.02 118.173 204.02 117.449C204.02 116.72 203.929 116.087 203.746 115.551C203.569 115.009 203.319 114.592 202.996 114.301C202.679 114.009 202.306 113.863 201.879 113.863ZM209.762 125.519H208.285V111.48H209.762V125.519ZM218.874 113.465C218.874 114.272 218.624 115.014 218.124 115.691C217.624 116.368 216.955 116.933 216.117 117.387C215.278 117.84 214.346 118.147 213.32 118.308L212.749 117.144C213.624 117.019 214.432 116.775 215.171 116.41C215.911 116.045 216.497 115.605 216.929 115.09C217.361 114.574 217.577 114.032 217.577 113.465V112.926H218.874V113.465ZM219.265 113.465C219.265 114.032 219.478 114.574 219.906 115.09C220.338 115.605 220.924 116.045 221.663 116.41C222.408 116.775 223.218 117.019 224.093 117.144L223.554 118.308C222.523 118.147 221.583 117.842 220.734 117.394C219.89 116.946 219.218 116.381 218.718 115.699C218.223 115.017 217.976 114.272 217.976 113.465V112.926H219.265V113.465ZM219.124 125.488H217.663V120.199H219.124V125.488ZM224.804 120.59H212.038V119.379H224.804V120.59ZM223.609 113.504H213.218V112.316H223.609V113.504ZM237.338 116.762H227.674V115.59H237.338V116.762ZM238.791 119.723H225.979V118.535H238.791V119.723ZM229.151 116.183H227.674V111.996H229.151V116.183ZM237.416 125.152H227.58V123.933H237.416V125.152ZM229.065 124.285H227.58V121.058H229.065V124.285Z" fill="#646E82"/>
<path d="M7.78906 136.902C7.78906 138.402 7.60156 139.767 7.22656 140.996C6.85677 142.225 6.20312 143.368 5.26562 144.426C4.33333 145.483 3.04688 146.42 1.40625 147.238L0.585938 146.105C2.02865 145.402 3.17188 144.6 4.01562 143.699C4.86458 142.793 5.46615 141.803 5.82031 140.73C6.17448 139.657 6.35156 138.441 6.35156 137.082V136.902H7.78906ZM7.22656 138.113H1.39844V136.902H7.22656V138.113ZM0.898438 142.012L0.679688 140.73L6.21875 140.371V141.512L0.898438 142.012ZM11.4219 149.473H9.94531V135.48H11.4219V149.473ZM13.5938 142.308H11.0391V141.074H13.5938V142.308ZM26.0421 136.973H15.6436V135.848H26.0421V136.973ZM25.9796 140.496H15.7061V139.348H25.9796V140.496ZM19.1593 140.152H17.6827V136.262H19.1593V140.152ZM24.003 140.152H22.5186V136.262H24.003V140.152ZM27.2374 142.691H14.4718V141.496H27.2374V142.691ZM21.5733 144.308H20.0968V142.215H21.5733V144.308ZM25.6202 147.09H17.4796V148.668H16.0186V146.043H24.1671V144.996H15.9952V143.902H25.6202V147.09ZM26.0264 149.348H16.0186V148.23H26.0264V149.348ZM44.0637 149.519H42.5715V135.48H44.0637V149.519ZM34.7199 140.254H38.5012V136.652H39.9543V146.168H33.2434V136.652H34.7199V140.254ZM38.5012 144.941V141.426H34.7199V144.941H38.5012ZM50.9651 142.84H49.4886V140.215H50.9651V142.84ZM56.0901 142.84H54.6136V140.215H56.0901V142.84ZM59.1839 143.519H46.4183V142.316H59.1839V143.519ZM52.7933 144.473C53.8037 144.473 54.6683 144.569 55.387 144.762C56.111 144.954 56.6656 145.236 57.0511 145.605C57.4365 145.975 57.6292 146.428 57.6292 146.965C57.6292 147.496 57.4365 147.946 57.0511 148.316C56.6656 148.686 56.111 148.967 55.387 149.16C54.6683 149.358 53.8037 149.457 52.7933 149.457C51.7776 149.457 50.9052 149.358 50.1761 149.16C49.4521 148.967 48.8974 148.686 48.512 148.316C48.1266 147.946 47.9339 147.496 47.9339 146.965C47.9339 146.428 48.1266 145.975 48.512 145.605C48.8974 145.236 49.4547 144.954 50.1839 144.762C50.913 144.569 51.7828 144.473 52.7933 144.473ZM52.7933 145.605C52.0797 145.605 51.4729 145.657 50.9729 145.762C50.4729 145.866 50.0927 146.022 49.8323 146.23C49.5719 146.433 49.4417 146.678 49.4417 146.965C49.4417 147.251 49.5719 147.496 49.8323 147.699C50.0927 147.902 50.4729 148.056 50.9729 148.16C51.4729 148.269 52.0797 148.324 52.7933 148.324C53.4964 148.324 54.0979 148.269 54.5979 148.16C55.1031 148.056 55.486 147.902 55.7464 147.699C56.0068 147.496 56.137 147.251 56.137 146.965C56.137 146.678 56.0068 146.433 55.7464 146.23C55.486 146.022 55.1058 145.866 54.6058 145.762C54.111 145.657 53.5068 145.605 52.7933 145.605ZM52.8011 135.73C53.8219 135.73 54.7047 135.835 55.4495 136.043C56.1995 136.251 56.7776 136.553 57.1839 136.949C57.5901 137.34 57.7933 137.811 57.7933 138.363C57.7933 138.9 57.5901 139.366 57.1839 139.762C56.7828 140.152 56.2073 140.452 55.4573 140.66C54.7073 140.863 53.8219 140.965 52.8011 140.965C51.775 140.965 50.8844 140.863 50.1292 140.66C49.3792 140.452 48.8011 140.152 48.3948 139.762C47.9886 139.366 47.7854 138.9 47.7854 138.363C47.7854 137.811 47.9886 137.34 48.3948 136.949C48.8011 136.553 49.3792 136.251 50.1292 136.043C50.8844 135.835 51.775 135.73 52.8011 135.73ZM52.8011 136.887C52.0771 136.887 51.4521 136.946 50.9261 137.066C50.4052 137.181 50.0068 137.348 49.7308 137.566C49.4599 137.785 49.3245 138.051 49.3245 138.363C49.3245 138.67 49.4599 138.933 49.7308 139.152C50.0068 139.371 50.4052 139.54 50.9261 139.66C51.4521 139.775 52.0771 139.832 52.8011 139.832C53.5198 139.832 54.1396 139.775 54.6604 139.66C55.1813 139.54 55.5797 139.371 55.8558 139.152C56.1318 138.933 56.2698 138.67 56.2698 138.363C56.2698 138.051 56.1318 137.785 55.8558 137.566C55.5797 137.348 55.1813 137.181 54.6604 137.066C54.1396 136.946 53.5198 136.887 52.8011 136.887ZM72.9321 140.535H69.8774V139.316H72.9321V140.535ZM72.9086 144.035H69.7836V142.824H72.9086V144.035ZM76.4399 149.48H75.0336V135.48H76.4399V149.48ZM73.5805 148.808H72.1664V135.84H73.5805V148.808ZM70.4633 137.23C70.4633 138.527 70.2862 139.736 69.9321 140.855C69.5779 141.97 69.0128 143.004 68.2368 143.957C67.4659 144.91 66.4581 145.756 65.2133 146.496L64.3227 145.433C65.406 144.793 66.294 144.071 66.9868 143.269C67.6847 142.462 68.1977 141.582 68.5258 140.629C68.8591 139.67 69.0258 138.631 69.0258 137.512V137.23H70.4633ZM69.5727 138.441H65.018V137.23H69.5727V138.441ZM82.9898 138.012C82.9898 138.918 82.8335 139.764 82.521 140.551C82.2085 141.332 81.758 142.012 81.1694 142.59C80.5809 143.168 79.883 143.608 79.0757 143.91L78.2554 142.73C78.9793 142.48 79.6043 142.118 80.1304 141.644C80.6616 141.165 81.0653 140.613 81.3413 139.988C81.6174 139.363 81.7554 138.704 81.7554 138.012V136.348H82.9898V138.012ZM83.2241 138.043C83.2241 138.673 83.3621 139.277 83.6382 139.855C83.9142 140.428 84.3127 140.939 84.8335 141.387C85.3543 141.829 85.9637 142.173 86.6616 142.418L85.896 143.59C85.1043 143.303 84.4194 142.887 83.8413 142.34C83.2632 141.793 82.8179 141.15 82.5054 140.41C82.1929 139.67 82.0366 138.881 82.0366 138.043V136.348H83.2241V138.043ZM89.3648 145.801H87.8882V135.488H89.3648V145.801ZM91.4038 140.957H88.9116V139.699H91.4038V140.957ZM89.9663 149.207H80.5054V147.98H89.9663V149.207ZM82.021 148.598H80.5054V144.801H82.021V148.598ZM103.746 142.137H97.0895V136.371H103.746V142.137ZM98.5426 140.973H102.285V137.558H98.5426V140.973ZM107.949 143.496H106.488V135.48H107.949V143.496ZM103.941 145.433C103.941 146.095 103.704 146.71 103.23 147.277C102.756 147.84 102.105 148.311 101.277 148.691C100.454 149.071 99.5348 149.321 98.5192 149.441L98.0036 148.308C98.8577 148.215 99.6416 148.022 100.355 147.73C101.069 147.433 101.629 147.082 102.035 146.676C102.446 146.269 102.652 145.855 102.652 145.433V145.183H103.941V145.433ZM104.191 145.433C104.191 145.845 104.392 146.254 104.793 146.66C105.199 147.066 105.751 147.418 106.449 147.715C107.152 148.006 107.931 148.204 108.785 148.308L108.277 149.441C107.272 149.321 106.358 149.066 105.535 148.676C104.717 148.285 104.074 147.808 103.605 147.246C103.142 146.678 102.91 146.074 102.91 145.433V145.183H104.191V145.433ZM108.277 145.519H98.5817V144.387H108.277V145.519ZM104.152 144.918H102.675V143.09H104.152V144.918ZM125.056 139.91H121.58V138.683H125.056V139.91ZM119.01 138.012C119.01 138.923 118.853 139.777 118.541 140.574C118.228 141.371 117.78 142.066 117.197 142.66C116.619 143.249 115.926 143.702 115.119 144.019L114.322 142.824C115.036 142.564 115.653 142.191 116.174 141.707C116.7 141.217 117.103 140.655 117.385 140.019C117.671 139.379 117.814 138.71 117.814 138.012V136.348H119.01V138.012ZM119.283 138.043C119.283 138.683 119.418 139.301 119.689 139.894C119.965 140.483 120.359 141.006 120.869 141.465C121.379 141.918 121.978 142.269 122.666 142.519L121.845 143.676C121.085 143.374 120.424 142.944 119.861 142.387C119.299 141.824 118.864 141.17 118.556 140.426C118.254 139.681 118.103 138.887 118.103 138.043V136.348H119.283V138.043ZM126.017 145.933H124.533V135.496H126.017V145.933ZM126.33 149.207H116.869V147.98H126.33V149.207ZM118.369 148.574H116.869V144.777H118.369V148.574ZM135.403 144.223H133.927V142.121H135.403V144.223ZM141.067 142.473H128.302V141.285H141.067V142.473ZM139.419 140.254H129.927V135.933H139.419V140.254ZM131.395 139.082H137.942V137.105H131.395V139.082ZM139.45 146.98H131.309V148.558H129.849V145.894H137.997V144.824H129.825V143.691H139.45V146.98ZM139.856 149.348H129.849V148.199H139.856V149.348ZM153.394 149.512H151.933V144.387H153.394V149.512ZM159.058 145.152H146.292V143.926H159.058V145.152ZM153.23 138.277C153.23 139.064 152.98 139.785 152.48 140.441C151.985 141.092 151.31 141.637 150.456 142.074C149.602 142.506 148.646 142.801 147.589 142.957L147.042 141.777C147.938 141.663 148.758 141.428 149.503 141.074C150.248 140.72 150.839 140.298 151.276 139.808C151.714 139.319 151.933 138.808 151.933 138.277V137.91H153.23V138.277ZM153.409 138.277C153.409 138.798 153.625 139.306 154.058 139.801C154.49 140.295 155.078 140.72 155.823 141.074C156.568 141.428 157.386 141.663 158.276 141.777L157.737 142.957C156.69 142.811 155.737 142.514 154.878 142.066C154.024 141.618 153.349 141.069 152.855 140.418C152.36 139.762 152.112 139.048 152.112 138.277V137.91H153.409V138.277ZM157.847 138.371H147.511V137.183H157.847V138.371ZM153.394 137.59H151.933V135.488H153.394V137.59ZM164.904 138.816C164.904 139.66 164.746 140.446 164.428 141.176C164.11 141.9 163.657 142.53 163.068 143.066C162.48 143.603 161.782 144.006 160.975 144.277L160.248 143.121C160.946 142.892 161.555 142.558 162.076 142.121C162.602 141.683 163.001 141.181 163.272 140.613C163.548 140.04 163.686 139.441 163.686 138.816V138.144H164.904V138.816ZM165.147 138.816C165.147 139.405 165.287 139.967 165.568 140.504C165.855 141.035 166.259 141.506 166.779 141.918C167.305 142.329 167.92 142.647 168.623 142.871L167.897 144.043C167.094 143.793 166.397 143.41 165.803 142.894C165.209 142.379 164.751 141.772 164.428 141.074C164.105 140.371 163.943 139.618 163.943 138.816V138.144H165.147V138.816ZM168.201 138.48H160.639V137.293H168.201V138.48ZM165.178 137.754H163.686V135.574H165.178V137.754ZM171.201 140.941H167.725V139.738H171.201V140.941ZM171.92 145.926H170.436V135.496H171.92V145.926ZM172.295 149.207H162.826V147.98H172.295V149.207ZM164.318 148.683H162.826V145.004H164.318V148.683ZM189.184 141.34H185.317V140.144H189.184V141.34ZM183.004 139.043C183.004 140.116 182.843 141.152 182.52 142.152C182.197 143.147 181.741 144.03 181.153 144.801C180.564 145.571 179.882 146.163 179.106 146.574L178.16 145.371C178.874 145.032 179.504 144.532 180.051 143.871C180.603 143.204 181.03 142.449 181.332 141.605C181.634 140.762 181.785 139.907 181.785 139.043V136.644H183.004V139.043ZM183.293 139.043C183.293 139.902 183.442 140.738 183.738 141.551C184.041 142.358 184.46 143.077 184.996 143.707C185.538 144.332 186.158 144.803 186.856 145.121L185.965 146.324C185.184 145.923 184.502 145.355 183.918 144.621C183.34 143.881 182.89 143.032 182.567 142.074C182.249 141.111 182.09 140.1 182.09 139.043V136.644H183.293V139.043ZM189.918 149.519H188.442V135.48H189.918V149.519ZM203.796 149.519H202.304V135.48H203.796V149.519ZM194.452 140.254H198.234V136.652H199.687V146.168H192.976V136.652H194.452V140.254ZM198.234 144.941V141.426H194.452V144.941H198.234ZM213.002 137.473C213.002 138.452 212.739 139.371 212.213 140.23C211.692 141.085 210.997 141.808 210.127 142.402C209.258 142.996 208.307 143.407 207.276 143.637L206.612 142.394C207.502 142.217 208.338 141.884 209.12 141.394C209.901 140.905 210.526 140.314 210.995 139.621C211.463 138.928 211.698 138.212 211.698 137.473V136.426H213.002V137.473ZM213.26 137.473C213.26 138.207 213.497 138.923 213.971 139.621C214.445 140.319 215.075 140.915 215.862 141.41C216.648 141.9 217.484 142.228 218.37 142.394L217.705 143.637C216.685 143.407 215.739 142.999 214.87 142.41C214 141.821 213.302 141.098 212.776 140.238C212.25 139.379 211.987 138.457 211.987 137.473V136.426H213.26V137.473ZM218.963 147.644H206.151V146.418H218.963V147.644Z" fill="#646E82"/>
<path d="M167.286 2.40842V0.600894H177.845V10.3439H169.49V16.3396H178.286V18.1471H167.286V8.53638H175.64V2.40842H167.286ZM183.422 7.39014H186.001V9.19767H183.422V18.3676H181.217V0.160034H183.422V7.39014Z" fill="#373F57"/>
<path d="M163.607 10.895V12.7026H156.685V16.5601H164.466V18.3676H146.722V16.5601H154.481V12.7026H147.802V0.600952H163.386V2.40848H150.006V10.895H163.607Z" fill="#373F57"/>
<path d="M135.829 19.2493C134.551 19.2493 133.39 19.1685 132.346 19.0068C131.318 18.8452 130.443 18.6027 129.723 18.2794C129.003 17.9561 128.445 17.5446 128.048 17.045C127.666 16.56 127.475 15.9869 127.475 15.3256C127.475 14.6643 127.666 14.0912 128.048 13.6063C128.445 13.1066 129.003 12.7025 129.723 12.3939C130.443 12.0706 131.318 11.8281 132.346 11.6665C133.39 11.5048 134.551 11.424 135.829 11.424C137.108 11.424 138.261 11.5048 139.29 11.6665C140.333 11.8281 141.215 12.0706 141.935 12.3939C142.655 12.7025 143.206 13.1066 143.588 13.6063C143.985 14.0912 144.183 14.6643 144.183 15.3256C144.183 15.9869 143.985 16.56 143.588 17.045C143.206 17.5446 142.655 17.9561 141.935 18.2794C141.215 18.6027 140.333 18.8452 139.29 19.0068C138.261 19.1685 137.108 19.2493 135.829 19.2493ZM126.659 0.380464H138.673V2.18799H133.669V4.01756C133.669 4.48781 133.61 4.95806 133.492 5.42831L138.915 8.84498L137.747 10.3659L132.633 7.12563C132.074 7.86039 131.332 8.48495 130.406 8.99928C129.481 9.51362 128.408 9.94713 127.188 10.2998L126.218 8.69068C126.968 8.49964 127.658 8.27186 128.29 8.00735C128.922 7.72813 129.473 7.40484 129.944 7.03745C130.414 6.67007 130.781 6.23656 131.046 5.73692C131.31 5.23727 131.442 4.65681 131.442 3.99552V2.18799H126.659V0.380464ZM135.829 17.4418C136.77 17.4418 137.614 17.3977 138.364 17.3095C139.128 17.2213 139.775 17.0891 140.304 16.9127C140.847 16.7364 141.259 16.5159 141.538 16.2514C141.832 15.9869 141.979 15.6783 141.979 15.3256C141.979 14.9729 141.832 14.6717 141.538 14.4219C141.259 14.1573 140.847 13.9369 140.304 13.7606C139.775 13.5842 139.128 13.452 138.364 13.3638C137.614 13.2756 136.77 13.2315 135.829 13.2315C134.889 13.2315 134.036 13.2756 133.272 13.3638C132.523 13.452 131.876 13.5842 131.332 13.7606C130.803 13.9369 130.392 14.1573 130.098 14.4219C129.819 14.6717 129.679 14.9729 129.679 15.3256C129.679 15.6783 129.819 15.9869 130.098 16.2514C130.392 16.5159 130.803 16.7364 131.332 16.9127C131.876 17.0891 132.523 17.2213 133.272 17.3095C134.036 17.3977 134.889 17.4418 135.829 17.4418ZM143.742 0.160034V11.0934H141.538V5.29606L137.725 6.17778V4.37025L141.538 3.48853V0.160034H143.742Z" fill="#373F57"/>
<path d="M113.27 9.37401C113.27 10.9611 113.101 12.3278 112.763 13.474C112.44 14.6056 111.992 15.5314 111.419 16.2514C110.86 16.9862 110.206 17.5226 109.457 17.8606C108.707 18.1986 107.921 18.3676 107.098 18.3676C106.261 18.3676 105.467 18.1986 104.718 17.8606C103.968 17.5226 103.307 16.9862 102.734 16.2514C102.175 15.5314 101.735 14.6056 101.411 13.474C101.088 12.3278 100.926 10.9611 100.926 9.37401C100.926 7.78692 101.088 6.4276 101.411 5.29606C101.735 4.16451 102.175 3.23871 102.734 2.51864C103.307 1.78387 103.968 1.24749 104.718 0.909496C105.467 0.556808 106.261 0.380464 107.098 0.380464C107.921 0.380464 108.707 0.556808 109.457 0.909496C110.206 1.24749 110.86 1.78387 111.419 2.51864C111.992 3.23871 112.44 4.16451 112.763 5.29606C113.101 6.4276 113.27 7.78692 113.27 9.37401ZM103.131 9.37401C103.131 10.7113 103.226 11.8428 103.417 12.7686C103.623 13.6797 103.902 14.4145 104.255 14.9729C104.607 15.5314 105.026 15.9355 105.511 16.1853C105.996 16.4351 106.525 16.56 107.098 16.56C107.657 16.56 108.178 16.4351 108.663 16.1853C109.148 15.9502 109.567 15.5534 109.92 14.995C110.273 14.4219 110.544 13.6797 110.735 12.7686C110.941 11.8428 111.044 10.7039 111.044 9.35197C111.044 8.01469 110.941 6.8905 110.735 5.97939C110.544 5.06828 110.273 4.33351 109.92 3.77509C109.567 3.21666 109.148 2.81254 108.663 2.56272C108.178 2.3129 107.657 2.18799 107.098 2.18799C106.525 2.18799 105.996 2.3129 105.511 2.56272C105.026 2.81254 104.607 3.21666 104.255 3.77509C103.902 4.33351 103.623 5.07563 103.417 6.00143C103.226 6.91254 103.131 8.03674 103.131 9.37401ZM118.384 18.3676H116.18V0.160034H118.384V18.3676Z" fill="#373F57"/>
<path d="M92.8175 18.4558C92.8175 19.455 92.6411 20.1898 92.2884 20.6601C91.9357 21.145 91.2891 21.4463 90.3486 21.5638V20.3074C90.8042 20.2486 91.1201 20.1016 91.2965 19.8665C91.4728 19.6314 91.561 19.1758 91.561 18.4998H90.3927V16.1412H92.8175V18.4558Z" fill="#373F57"/>
<path d="M68.5762 2.40842V0.600894H77.3713V10.3439H70.7805V16.3396H77.5918V18.1471H68.5762V8.53638H75.167V2.40842H68.5762ZM80.3251 18.3676V13.1875L78.1428 13.9369V12.1294L80.3251 11.3799V6.0896L78.1428 6.83907V5.03154L80.3251 4.28208V0.160034H82.5294V18.3676H80.3251ZM87.0041 18.3676H84.7998V0.160034H87.0041V18.3676Z" fill="#373F57"/>
<path d="M50.9763 11.0713V13.1213H61.7774V11.0713H63.9817V18.8084H48.772V11.0713H50.9763ZM59.5069 0.380464V2.18799H50.0505V7.65466H59.7274V9.46219H47.8462V0.380464H59.5069ZM63.9817 5.53853V9.85896H61.7774V0.160034H63.9817V3.731H66.5607V5.53853H63.9817ZM61.7774 17.0009V14.9289H50.9763V17.0009H61.7774Z" fill="#373F57"/>
<path d="M21.9863 8.00732H39.731V9.81485H31.9498V11.1595H38.6508V15.8987H25.2707V17.0009H38.8713V18.8084H23.0664V14.0912H36.4465V12.967H23.0664V11.1595H29.7455V9.81485H21.9863V8.00732ZM23.0664 0.358398H38.6508V2.16593H35.5869V4.74496H38.6508V6.55249H23.0664V4.74496H26.1084V2.16593H23.0664V0.358398ZM28.3127 4.74496H33.3826V2.16593H28.3127V4.74496Z" fill="#373F57"/>
<path d="M9.89727 18.1471V10.3439H1.54297V8.53638H9.89727V2.40842H1.54297V0.600894H12.1016V18.1471H9.89727ZM17.6785 7.39014H20.2575V9.19767H17.6785V18.3676H15.4742V0.160034H17.6785V7.39014Z" fill="#373F57"/>
<path d="M16.0648 57.5739V47.2782H0V38.1364H27.1149V81.5823H16.1092V66.7157H0.0443779V57.5739H16.1092H16.0648Z" fill="#4C41D6"/>
<path d="M78.193 38.1371V47.2789H62.1282V72.3969H78.7256V81.5387H51.0781V38.0927H78.193V38.1371ZM95.4117 82.1156H84.4059V63.2106L74.554 66.4946V56.4208L84.4059 53.1368V37.072H95.4117V82.1156Z" fill="#4C41D6"/>
<path d="M102.247 47.323V38.1812H129.361V64.6304H113.297V72.4409H130.427V81.5828H102.247V55.4442H118.311V47.2786H102.247V47.323Z" fill="#4C41D6"/>
<path d="M31.6841 37.072H42.6898V55.977L47.3495 54.1575V64.2313L42.6898 66.0508V82.16H31.6841V37.072Z" fill="#4C41D6"/>
<path d="M133.932 37.072H144.937V55.977L154.789 52.6931V62.7668L144.937 66.0508V82.16H133.932V37.072Z" fill="#4C41D6"/>
</svg>
